<svg width="1440" height="800" viewBox="0 0 1440 800" fill="none" xmlns="http://www.w3.org/2000/svg">
<g clip-path="url(#clip0_55_935)">
<rect width="1440" height="800" fill="#8C44FF"/>
<path d="M1440 0H0V800H1440V0Z" fill="#F5F5F5"/>
<path d="M1436.3 23.3H1429.3V16.3H1428.2V23.3H1421.2V24.3H1428.2V31.3H1429.3V24.3H1436.3V23.3Z" fill="#8C44FF"/>
<path d="M1436.3 73.3H1429.3V66.3H1428.2V73.3H1421.2V74.3H1428.2V81.3H1429.3V74.3H1436.3V73.3Z" fill="#8C44FF"/>
<path d="M1436.3 123.3H1429.3V116.3H1428.2V123.3H1421.2V124.3H1428.2V131.3H1429.3V124.3H1436.3V123.3Z" fill="#8C44FF"/>
<path d="M1436.3 173.3H1429.3V166.3H1428.2V173.3H1421.2V174.3H1428.2V181.3H1429.3V174.3H1436.3V173.3Z" fill="#8C44FF"/>
<path d="M1436.3 223.3H1429.3V216.3H1428.2V223.3H1421.2V224.3H1428.2V231.3H1429.3V224.3H1436.3V223.3Z" fill="#8C44FF"/>
<path d="M1436.3 273.3H1429.3V266.3H1428.2V273.3H1421.2V274.3H1428.2V281.3H1429.3V274.3H1436.3V273.3Z" fill="#8C44FF"/>
<path d="M1436.3 323.3H1429.3V316.3H1428.2V323.3H1421.2V324.3H1428.2V331.3H1429.3V324.3H1436.3V323.3Z" fill="#8C44FF"/>
<path d="M1436.3 373.3H1429.3V366.3H1428.2V373.3H1421.2V374.3H1428.2V381.3H1429.3V374.3H1436.3V373.3Z" fill="#8C44FF"/>
<path d="M1436.3 423.3H1429.3V416.3H1428.2V423.3H1421.2V424.3H1428.2V431.3H1429.3V424.3H1436.3V423.3Z" fill="#8C44FF"/>
<path d="M1436.3 473.3H1429.3V466.3H1428.2V473.3H1421.2V474.3H1428.2V481.3H1429.3V474.3H1436.3V473.3Z" fill="#8C44FF"/>
<path d="M1436.3 523.3H1429.3V516.3H1428.2V523.3H1421.2V524.3H1428.2V531.3H1429.3V524.3H1436.3V523.3Z" fill="#8C44FF"/>
<path d="M1436.3 573.3H1429.3V566.3H1428.2V573.3H1421.2V574.3H1428.2V581.3H1429.3V574.3H1436.3V573.3Z" fill="#8C44FF"/>
<path d="M1436.3 623.3H1429.3V616.3H1428.2V623.3H1421.2V624.3H1428.2V631.3H1429.3V624.3H1436.3V623.3Z" fill="#8C44FF"/>
<path d="M1436.3 673.3H1429.3V666.3H1428.2V673.3H1421.2V674.3H1428.2V681.3H1429.3V674.3H1436.3V673.3Z" fill="#8C44FF"/>
<path d="M1436.3 723.3H1429.3V716.3H1428.2V723.3H1421.2V724.3H1428.2V731.3H1429.3V724.3H1436.3V723.3Z" fill="#8C44FF"/>
<path d="M1436.3 773.3H1429.3V766.3H1428.2V773.3H1421.2V774.3H1428.2V781.3H1429.3V774.3H1436.3V773.3Z" fill="#8C44FF"/>
<path d="M1386.3 23.3H1379.3V16.3H1378.2V23.3H1371.2V24.3H1378.2V31.3H1379.3V24.3H1386.3V23.3Z" fill="#8C44FF"/>
<path d="M1386.3 73.3H1379.3V66.3H1378.2V73.3H1371.2V74.3H1378.2V81.3H1379.3V74.3H1386.3V73.3Z" fill="#8C44FF"/>
<path d="M1386.3 123.3H1379.3V116.3H1378.2V123.3H1371.2V124.3H1378.2V131.3H1379.3V124.3H1386.3V123.3Z" fill="#8C44FF"/>
<path d="M1386.3 173.3H1379.3V166.3H1378.2V173.3H1371.2V174.3H1378.2V181.3H1379.3V174.3H1386.3V173.3Z" fill="#8C44FF"/>
<path d="M1386.3 223.3H1379.3V216.3H1378.2V223.3H1371.2V224.3H1378.2V231.3H1379.3V224.3H1386.3V223.3Z" fill="#8C44FF"/>
<path d="M1386.3 273.3H1379.3V266.3H1378.2V273.3H1371.2V274.3H1378.2V281.3H1379.3V274.3H1386.3V273.3Z" fill="#8C44FF"/>
<path d="M1386.3 323.3H1379.3V316.3H1378.2V323.3H1371.2V324.3H1378.2V331.3H1379.3V324.3H1386.3V323.3Z" fill="#8C44FF"/>
<path d="M1386.3 373.3H1379.3V366.3H1378.2V373.3H1371.2V374.3H1378.2V381.3H1379.3V374.3H1386.3V373.3Z" fill="#8C44FF"/>
<path d="M1386.3 423.3H1379.3V416.3H1378.2V423.3H1371.2V424.3H1378.2V431.3H1379.3V424.3H1386.3V423.3Z" fill="#8C44FF"/>
<path d="M1386.3 473.3H1379.3V466.3H1378.2V473.3H1371.2V474.3H1378.2V481.3H1379.3V474.3H1386.3V473.3Z" fill="#8C44FF"/>
<path d="M1386.3 523.3H1379.3V516.3H1378.2V523.3H1371.2V524.3H1378.2V531.3H1379.3V524.3H1386.3V523.3Z" fill="#8C44FF"/>
<path d="M1386.3 573.3H1379.3V566.3H1378.2V573.3H1371.2V574.3H1378.2V581.3H1379.3V574.3H1386.3V573.3Z" fill="#8C44FF"/>
<path d="M1386.3 623.3H1379.3V616.3H1378.2V623.3H1371.2V624.3H1378.2V631.3H1379.3V624.3H1386.3V623.3Z" fill="#8C44FF"/>
<path d="M1386.3 673.3H1379.3V666.3H1378.2V673.3H1371.2V674.3H1378.2V681.3H1379.3V674.3H1386.3V673.3Z" fill="#8C44FF"/>
<path d="M1386.3 723.3H1379.3V716.3H1378.2V723.3H1371.2V724.3H1378.2V731.3H1379.3V724.3H1386.3V723.3Z" fill="#8C44FF"/>
<path d="M1386.3 773.3H1379.3V766.3H1378.2V773.3H1371.2V774.3H1378.2V781.3H1379.3V774.3H1386.3V773.3Z" fill="#8C44FF"/>
<path d="M1336.3 23.3H1329.3V16.3H1328.2V23.3H1321.2V24.3H1328.2V31.3H1329.3V24.3H1336.3V23.3Z" fill="#8C44FF"/>
<path d="M1336.3 73.3H1329.3V66.3H1328.2V73.3H1321.2V74.3H1328.2V81.3H1329.3V74.3H1336.3V73.3Z" fill="#8C44FF"/>
<path d="M1336.3 123.3H1329.3V116.3H1328.2V123.3H1321.2V124.3H1328.2V131.3H1329.3V124.3H1336.3V123.3Z" fill="#8C44FF"/>
<path d="M1336.3 173.3H1329.3V166.3H1328.2V173.3H1321.2V174.3H1328.2V181.3H1329.3V174.3H1336.3V173.3Z" fill="#8C44FF"/>
<path d="M1336.3 223.3H1329.3V216.3H1328.2V223.3H1321.2V224.3H1328.2V231.3H1329.3V224.3H1336.3V223.3Z" fill="#8C44FF"/>
<path d="M1336.3 273.3H1329.3V266.3H1328.2V273.3H1321.2V274.3H1328.2V281.3H1329.3V274.3H1336.3V273.3Z" fill="#8C44FF"/>
<path d="M1336.3 323.3H1329.3V316.3H1328.2V323.3H1321.2V324.3H1328.2V331.3H1329.3V324.3H1336.3V323.3Z" fill="#8C44FF"/>
<path d="M1336.3 373.3H1329.3V366.3H1328.2V373.3H1321.2V374.3H1328.2V381.3H1329.3V374.3H1336.3V373.3Z" fill="#8C44FF"/>
<path d="M1336.3 423.3H1329.3V416.3H1328.2V423.3H1321.2V424.3H1328.2V431.3H1329.3V424.3H1336.3V423.3Z" fill="#8C44FF"/>
<path d="M1336.3 473.3H1329.3V466.3H1328.2V473.3H1321.2V474.3H1328.2V481.3H1329.3V474.3H1336.3V473.3Z" fill="#8C44FF"/>
<path d="M1336.3 523.3H1329.3V516.3H1328.2V523.3H1321.2V524.3H1328.2V531.3H1329.3V524.3H1336.3V523.3Z" fill="#8C44FF"/>
<path d="M1336.3 573.3H1329.3V566.3H1328.2V573.3H1321.2V574.3H1328.2V581.3H1329.3V574.3H1336.3V573.3Z" fill="#8C44FF"/>
<path d="M1336.3 623.3H1329.3V616.3H1328.2V623.3H1321.2V624.3H1328.2V631.3H1329.3V624.3H1336.3V623.3Z" fill="#8C44FF"/>
<path d="M1336.3 673.3H1329.3V666.3H1328.2V673.3H1321.2V674.3H1328.2V681.3H1329.3V674.3H1336.3V673.3Z" fill="#8C44FF"/>
<path d="M1336.3 723.3H1329.3V716.3H1328.2V723.3H1321.2V724.3H1328.2V731.3H1329.3V724.3H1336.3V723.3Z" fill="#8C44FF"/>
<path d="M1336.3 773.3H1329.3V766.3H1328.2V773.3H1321.2V774.3H1328.2V781.3H1329.3V774.3H1336.3V773.3Z" fill="#8C44FF"/>
<path d="M1286.3 23.3H1279.3V16.3H1278.2V23.3H1271.2V24.3H1278.2V31.3H1279.3V24.3H1286.3V23.3Z" fill="#8C44FF"/>
<path d="M1286.3 73.3H1279.3V66.3H1278.2V73.3H1271.2V74.3H1278.2V81.3H1279.3V74.3H1286.3V73.3Z" fill="#8C44FF"/>
<path d="M1286.3 123.3H1279.3V116.3H1278.2V123.3H1271.2V124.3H1278.2V131.3H1279.3V124.3H1286.3V123.3Z" fill="#8C44FF"/>
<path d="M1286.3 173.3H1279.3V166.3H1278.2V173.3H1271.2V174.3H1278.2V181.3H1279.3V174.3H1286.3V173.3Z" fill="#8C44FF"/>
<path d="M1286.3 223.3H1279.3V216.3H1278.2V223.3H1271.2V224.3H1278.2V231.3H1279.3V224.3H1286.3V223.3Z" fill="#8C44FF"/>
<path d="M1286.3 273.3H1279.3V266.3H1278.2V273.3H1271.2V274.3H1278.2V281.3H1279.3V274.3H1286.3V273.3Z" fill="#8C44FF"/>
<path d="M1286.3 323.3H1279.3V316.3H1278.2V323.3H1271.2V324.3H1278.2V331.3H1279.3V324.3H1286.3V323.3Z" fill="#8C44FF"/>
<path d="M1286.3 373.3H1279.3V366.3H1278.2V373.3H1271.2V374.3H1278.2V381.3H1279.3V374.3H1286.3V373.3Z" fill="#8C44FF"/>
<path d="M1286.3 423.3H1279.3V416.3H1278.2V423.3H1271.2V424.3H1278.2V431.3H1279.3V424.3H1286.3V423.3Z" fill="#8C44FF"/>
<path d="M1286.3 473.3H1279.3V466.3H1278.2V473.3H1271.2V474.3H1278.2V481.3H1279.3V474.3H1286.3V473.3Z" fill="#8C44FF"/>
<path d="M1286.3 523.3H1279.3V516.3H1278.2V523.3H1271.2V524.3H1278.2V531.3H1279.3V524.3H1286.3V523.3Z" fill="#8C44FF"/>
<path d="M1286.3 573.3H1279.3V566.3H1278.2V573.3H1271.2V574.3H1278.2V581.3H1279.3V574.3H1286.3V573.3Z" fill="#8C44FF"/>
<path d="M1286.3 623.3H1279.3V616.3H1278.2V623.3H1271.2V624.3H1278.2V631.3H1279.3V624.3H1286.3V623.3Z" fill="#8C44FF"/>
<path d="M1286.3 673.3H1279.3V666.3H1278.2V673.3H1271.2V674.3H1278.2V681.3H1279.3V674.3H1286.3V673.3Z" fill="#8C44FF"/>
<path d="M1286.3 723.3H1279.3V716.3H1278.2V723.3H1271.2V724.3H1278.2V731.3H1279.3V724.3H1286.3V723.3Z" fill="#8C44FF"/>
<path d="M1286.3 773.3H1279.3V766.3H1278.2V773.3H1271.2V774.3H1278.2V781.3H1279.3V774.3H1286.3V773.3Z" fill="#8C44FF"/>
<path d="M1236.3 23.3H1229.3V16.3H1228.2V23.3H1221.2V24.3H1228.2V31.3H1229.3V24.3H1236.3V23.3Z" fill="#8C44FF"/>
<path d="M1236.3 73.3H1229.3V66.3H1228.2V73.3H1221.2V74.3H1228.2V81.3H1229.3V74.3H1236.3V73.3Z" fill="#8C44FF"/>
<path d="M1236.3 123.3H1229.3V116.3H1228.2V123.3H1221.2V124.3H1228.2V131.3H1229.3V124.3H1236.3V123.3Z" fill="#8C44FF"/>
<path d="M1236.3 173.3H1229.3V166.3H1228.2V173.3H1221.2V174.3H1228.2V181.3H1229.3V174.3H1236.3V173.3Z" fill="#8C44FF"/>
<path d="M1236.3 223.3H1229.3V216.3H1228.2V223.3H1221.2V224.3H1228.2V231.3H1229.3V224.3H1236.3V223.3Z" fill="#8C44FF"/>
<path d="M1236.3 273.3H1229.3V266.3H1228.2V273.3H1221.2V274.3H1228.2V281.3H1229.3V274.3H1236.3V273.3Z" fill="#8C44FF"/>
<path d="M1236.3 323.3H1229.3V316.3H1228.2V323.3H1221.2V324.3H1228.2V331.3H1229.3V324.3H1236.3V323.3Z" fill="#8C44FF"/>
<path d="M1236.3 373.3H1229.3V366.3H1228.2V373.3H1221.2V374.3H1228.2V381.3H1229.3V374.3H1236.3V373.3Z" fill="#8C44FF"/>
<path d="M1236.3 423.3H1229.3V416.3H1228.2V423.3H1221.2V424.3H1228.2V431.3H1229.3V424.3H1236.3V423.3Z" fill="#8C44FF"/>
<path d="M1236.3 473.3H1229.3V466.3H1228.2V473.3H1221.2V474.3H1228.2V481.3H1229.3V474.3H1236.3V473.3Z" fill="#8C44FF"/>
<path d="M1236.3 523.3H1229.3V516.3H1228.2V523.3H1221.2V524.3H1228.2V531.3H1229.3V524.3H1236.3V523.3Z" fill="#8C44FF"/>
<path d="M1236.3 573.3H1229.3V566.3H1228.2V573.3H1221.2V574.3H1228.2V581.3H1229.3V574.3H1236.3V573.3Z" fill="#8C44FF"/>
<path d="M1236.3 623.3H1229.3V616.3H1228.2V623.3H1221.2V624.3H1228.2V631.3H1229.3V624.3H1236.3V623.3Z" fill="#8C44FF"/>
<path d="M1236.3 673.3H1229.3V666.3H1228.2V673.3H1221.2V674.3H1228.2V681.3H1229.3V674.3H1236.3V673.3Z" fill="#8C44FF"/>
<path d="M1236.3 723.3H1229.3V716.3H1228.2V723.3H1221.2V724.3H1228.2V731.3H1229.3V724.3H1236.3V723.3Z" fill="#8C44FF"/>
<path d="M1236.3 773.3H1229.3V766.3H1228.2V773.3H1221.2V774.3H1228.2V781.3H1229.3V774.3H1236.3V773.3Z" fill="#8C44FF"/>
<path d="M1186.3 23.3H1179.3V16.3H1178.2V23.3H1171.2V24.3H1178.2V31.3H1179.3V24.3H1186.3V23.3Z" fill="#8C44FF"/>
<path d="M1186.3 73.3H1179.3V66.3H1178.2V73.3H1171.2V74.3H1178.2V81.3H1179.3V74.3H1186.3V73.3Z" fill="#8C44FF"/>
<path d="M1186.3 123.3H1179.3V116.3H1178.2V123.3H1171.2V124.3H1178.2V131.3H1179.3V124.3H1186.3V123.3Z" fill="#8C44FF"/>
<path d="M1186.3 173.3H1179.3V166.3H1178.2V173.3H1171.2V174.3H1178.2V181.3H1179.3V174.3H1186.3V173.3Z" fill="#8C44FF"/>
<path d="M1186.3 223.3H1179.3V216.3H1178.2V223.3H1171.2V224.3H1178.2V231.3H1179.3V224.3H1186.3V223.3Z" fill="#8C44FF"/>
<path d="M1186.3 273.3H1179.3V266.3H1178.2V273.3H1171.2V274.3H1178.2V281.3H1179.3V274.3H1186.3V273.3Z" fill="#8C44FF"/>
<path d="M1186.3 323.3H1179.3V316.3H1178.2V323.3H1171.2V324.3H1178.2V331.3H1179.3V324.3H1186.3V323.3Z" fill="#8C44FF"/>
<path d="M1186.3 373.3H1179.3V366.3H1178.2V373.3H1171.2V374.3H1178.2V381.3H1179.3V374.3H1186.3V373.3Z" fill="#8C44FF"/>
<path d="M1186.3 423.3H1179.3V416.3H1178.2V423.3H1171.2V424.3H1178.2V431.3H1179.3V424.3H1186.3V423.3Z" fill="#8C44FF"/>
<path d="M1186.3 473.3H1179.3V466.3H1178.2V473.3H1171.2V474.3H1178.2V481.3H1179.3V474.3H1186.3V473.3Z" fill="#8C44FF"/>
<path d="M1186.3 523.3H1179.3V516.3H1178.2V523.3H1171.2V524.3H1178.2V531.3H1179.3V524.3H1186.3V523.3Z" fill="#8C44FF"/>
<path d="M1186.3 573.3H1179.3V566.3H1178.2V573.3H1171.2V574.3H1178.2V581.3H1179.3V574.3H1186.3V573.3Z" fill="#8C44FF"/>
<path d="M1186.3 623.3H1179.3V616.3H1178.2V623.3H1171.2V624.3H1178.2V631.3H1179.3V624.3H1186.3V623.3Z" fill="#8C44FF"/>
<path d="M1186.3 673.3H1179.3V666.3H1178.2V673.3H1171.2V674.3H1178.2V681.3H1179.3V674.3H1186.3V673.3Z" fill="#8C44FF"/>
<path d="M1186.3 723.3H1179.3V716.3H1178.2V723.3H1171.2V724.3H1178.2V731.3H1179.3V724.3H1186.3V723.3Z" fill="#8C44FF"/>
<path d="M1186.3 773.3H1179.3V766.3H1178.2V773.3H1171.2V774.3H1178.2V781.3H1179.3V774.3H1186.3V773.3Z" fill="#8C44FF"/>
<path d="M1136.3 23.3H1129.3V16.3H1128.2V23.3H1121.2V24.3H1128.2V31.3H1129.3V24.3H1136.3V23.3Z" fill="#8C44FF"/>
<path d="M1136.3 73.3H1129.3V66.3H1128.2V73.3H1121.2V74.3H1128.2V81.3H1129.3V74.3H1136.3V73.3Z" fill="#8C44FF"/>
<path d="M1136.3 123.3H1129.3V116.3H1128.2V123.3H1121.2V124.3H1128.2V131.3H1129.3V124.3H1136.3V123.3Z" fill="#8C44FF"/>
<path d="M1136.3 173.3H1129.3V166.3H1128.2V173.3H1121.2V174.3H1128.2V181.3H1129.3V174.3H1136.3V173.3Z" fill="#8C44FF"/>
<path d="M1136.3 223.3H1129.3V216.3H1128.2V223.3H1121.2V224.3H1128.2V231.3H1129.3V224.3H1136.3V223.3Z" fill="#8C44FF"/>
<path d="M1136.3 273.3H1129.3V266.3H1128.2V273.3H1121.2V274.3H1128.2V281.3H1129.3V274.3H1136.3V273.3Z" fill="#8C44FF"/>
<path d="M1136.3 323.3H1129.3V316.3H1128.2V323.3H1121.2V324.3H1128.2V331.3H1129.3V324.3H1136.3V323.3Z" fill="#8C44FF"/>
<path d="M1136.3 373.3H1129.3V366.3H1128.2V373.3H1121.2V374.3H1128.2V381.3H1129.3V374.3H1136.3V373.3Z" fill="#8C44FF"/>
<path d="M1136.3 423.3H1129.3V416.3H1128.2V423.3H1121.2V424.3H1128.2V431.3H1129.3V424.3H1136.3V423.3Z" fill="#8C44FF"/>
<path d="M1136.3 473.3H1129.3V466.3H1128.2V473.3H1121.2V474.3H1128.2V481.3H1129.3V474.3H1136.3V473.3Z" fill="#8C44FF"/>
<path d="M1136.3 523.3H1129.3V516.3H1128.2V523.3H1121.2V524.3H1128.2V531.3H1129.3V524.3H1136.3V523.3Z" fill="#8C44FF"/>
<path d="M1136.3 573.3H1129.3V566.3H1128.2V573.3H1121.2V574.3H1128.2V581.3H1129.3V574.3H1136.3V573.3Z" fill="#8C44FF"/>
<path d="M1136.3 623.3H1129.3V616.3H1128.2V623.3H1121.2V624.3H1128.2V631.3H1129.3V624.3H1136.3V623.3Z" fill="#8C44FF"/>
<path d="M1136.3 673.3H1129.3V666.3H1128.2V673.3H1121.2V674.3H1128.2V681.3H1129.3V674.3H1136.3V673.3Z" fill="#8C44FF"/>
<path d="M1136.3 723.3H1129.3V716.3H1128.2V723.3H1121.2V724.3H1128.2V731.3H1129.3V724.3H1136.3V723.3Z" fill="#8C44FF"/>
<path d="M1136.3 773.3H1129.3V766.3H1128.2V773.3H1121.2V774.3H1128.2V781.3H1129.3V774.3H1136.3V773.3Z" fill="#8C44FF"/>
<path d="M1086.3 23.3H1079.3V16.3H1078.2V23.3H1071.2V24.3H1078.2V31.3H1079.3V24.3H1086.3V23.3Z" fill="#8C44FF"/>
<path d="M1086.3 73.3H1079.3V66.3H1078.2V73.3H1071.2V74.3H1078.2V81.3H1079.3V74.3H1086.3V73.3Z" fill="#8C44FF"/>
<path d="M1086.3 123.3H1079.3V116.3H1078.2V123.3H1071.2V124.3H1078.2V131.3H1079.3V124.3H1086.3V123.3Z" fill="#8C44FF"/>
<path d="M1086.3 173.3H1079.3V166.3H1078.2V173.3H1071.2V174.3H1078.2V181.3H1079.3V174.3H1086.3V173.3Z" fill="#8C44FF"/>
<path d="M1086.3 223.3H1079.3V216.3H1078.2V223.3H1071.2V224.3H1078.2V231.3H1079.3V224.3H1086.3V223.3Z" fill="#8C44FF"/>
<path d="M1086.3 273.3H1079.3V266.3H1078.2V273.3H1071.2V274.3H1078.2V281.3H1079.3V274.3H1086.3V273.3Z" fill="#8C44FF"/>
<path d="M1086.3 323.3H1079.3V316.3H1078.2V323.3H1071.2V324.3H1078.2V331.3H1079.3V324.3H1086.3V323.3Z" fill="#8C44FF"/>
<path d="M1086.3 373.3H1079.3V366.3H1078.2V373.3H1071.2V374.3H1078.2V381.3H1079.3V374.3H1086.3V373.3Z" fill="#8C44FF"/>
<path d="M1086.3 423.3H1079.3V416.3H1078.2V423.3H1071.2V424.3H1078.2V431.3H1079.3V424.3H1086.3V423.3Z" fill="#8C44FF"/>
<path d="M1086.3 473.3H1079.3V466.3H1078.2V473.3H1071.2V474.3H1078.2V481.3H1079.3V474.3H1086.3V473.3Z" fill="#8C44FF"/>
<path d="M1086.3 523.3H1079.3V516.3H1078.2V523.3H1071.2V524.3H1078.2V531.3H1079.3V524.3H1086.3V523.3Z" fill="#8C44FF"/>
<path d="M1086.3 573.3H1079.3V566.3H1078.2V573.3H1071.2V574.3H1078.2V581.3H1079.3V574.3H1086.3V573.3Z" fill="#8C44FF"/>
<path d="M1086.3 623.3H1079.3V616.3H1078.2V623.3H1071.2V624.3H1078.2V631.3H1079.3V624.3H1086.3V623.3Z" fill="#8C44FF"/>
<path d="M1086.3 673.3H1079.3V666.3H1078.2V673.3H1071.2V674.3H1078.2V681.3H1079.3V674.3H1086.3V673.3Z" fill="#8C44FF"/>
<path d="M1086.3 723.3H1079.3V716.3H1078.2V723.3H1071.2V724.3H1078.2V731.3H1079.3V724.3H1086.3V723.3Z" fill="#8C44FF"/>
<path d="M1086.3 773.3H1079.3V766.3H1078.2V773.3H1071.2V774.3H1078.2V781.3H1079.3V774.3H1086.3V773.3Z" fill="#8C44FF"/>
<path d="M1036.3 23.3H1029.3V16.3H1028.2V23.3H1021.2V24.3H1028.2V31.3H1029.3V24.3H1036.3V23.3Z" fill="#8C44FF"/>
<path d="M1036.3 73.3H1029.3V66.3H1028.2V73.3H1021.2V74.3H1028.2V81.3H1029.3V74.3H1036.3V73.3Z" fill="#8C44FF"/>
<path d="M1036.3 123.3H1029.3V116.3H1028.2V123.3H1021.2V124.3H1028.2V131.3H1029.3V124.3H1036.3V123.3Z" fill="#8C44FF"/>
<path d="M1036.3 173.3H1029.3V166.3H1028.2V173.3H1021.2V174.3H1028.2V181.3H1029.3V174.3H1036.3V173.3Z" fill="#8C44FF"/>
<path d="M1036.3 223.3H1029.3V216.3H1028.2V223.3H1021.2V224.3H1028.2V231.3H1029.3V224.3H1036.3V223.3Z" fill="#8C44FF"/>
<path d="M1036.3 273.3H1029.3V266.3H1028.2V273.3H1021.2V274.3H1028.2V281.3H1029.3V274.3H1036.3V273.3Z" fill="#8C44FF"/>
<path d="M1036.3 323.3H1029.3V316.3H1028.2V323.3H1021.2V324.3H1028.2V331.3H1029.3V324.3H1036.3V323.3Z" fill="#8C44FF"/>
<path d="M1036.3 373.3H1029.3V366.3H1028.2V373.3H1021.2V374.3H1028.2V381.3H1029.3V374.3H1036.3V373.3Z" fill="#8C44FF"/>
<path d="M1036.3 423.3H1029.3V416.3H1028.2V423.3H1021.2V424.3H1028.2V431.3H1029.3V424.3H1036.3V423.3Z" fill="#8C44FF"/>
<path d="M1036.3 473.3H1029.3V466.3H1028.2V473.3H1021.2V474.3H1028.2V481.3H1029.3V474.3H1036.3V473.3Z" fill="#8C44FF"/>
<path d="M1036.3 523.3H1029.3V516.3H1028.2V523.3H1021.2V524.3H1028.2V531.3H1029.3V524.3H1036.3V523.3Z" fill="#8C44FF"/>
<path d="M1036.3 573.3H1029.3V566.3H1028.2V573.3H1021.2V574.3H1028.2V581.3H1029.3V574.3H1036.3V573.3Z" fill="#8C44FF"/>
<path d="M1036.3 623.3H1029.3V616.3H1028.2V623.3H1021.2V624.3H1028.2V631.3H1029.3V624.3H1036.3V623.3Z" fill="#8C44FF"/>
<path d="M1036.3 673.3H1029.3V666.3H1028.2V673.3H1021.2V674.3H1028.2V681.3H1029.3V674.3H1036.3V673.3Z" fill="#8C44FF"/>
<path d="M1036.3 723.3H1029.3V716.3H1028.2V723.3H1021.2V724.3H1028.2V731.3H1029.3V724.3H1036.3V723.3Z" fill="#8C44FF"/>
<path d="M1036.3 773.3H1029.3V766.3H1028.2V773.3H1021.2V774.3H1028.2V781.3H1029.3V774.3H1036.3V773.3Z" fill="#8C44FF"/>
<path d="M986.3 23.3H979.3V16.3H978.2V23.3H971.2V24.3H978.2V31.3H979.3V24.3H986.3V23.3Z" fill="#8C44FF"/>
<path d="M986.3 73.3H979.3V66.3H978.2V73.3H971.2V74.3H978.2V81.3H979.3V74.3H986.3V73.3Z" fill="#8C44FF"/>
<path d="M986.3 123.3H979.3V116.3H978.2V123.3H971.2V124.3H978.2V131.3H979.3V124.3H986.3V123.3Z" fill="#8C44FF"/>
<path d="M986.3 173.3H979.3V166.3H978.2V173.3H971.2V174.3H978.2V181.3H979.3V174.3H986.3V173.3Z" fill="#8C44FF"/>
<path d="M986.3 223.3H979.3V216.3H978.2V223.3H971.2V224.3H978.2V231.3H979.3V224.3H986.3V223.3Z" fill="#8C44FF"/>
<path d="M986.3 273.3H979.3V266.3H978.2V273.3H971.2V274.3H978.2V281.3H979.3V274.3H986.3V273.3Z" fill="#8C44FF"/>
<path d="M986.3 323.3H979.3V316.3H978.2V323.3H971.2V324.3H978.2V331.3H979.3V324.3H986.3V323.3Z" fill="#8C44FF"/>
<path d="M986.3 373.3H979.3V366.3H978.2V373.3H971.2V374.3H978.2V381.3H979.3V374.3H986.3V373.3Z" fill="#8C44FF"/>
<path d="M986.3 423.3H979.3V416.3H978.2V423.3H971.2V424.3H978.2V431.3H979.3V424.3H986.3V423.3Z" fill="#8C44FF"/>
<path d="M986.3 473.3H979.3V466.3H978.2V473.3H971.2V474.3H978.2V481.3H979.3V474.3H986.3V473.3Z" fill="#8C44FF"/>
<path d="M986.3 523.3H979.3V516.3H978.2V523.3H971.2V524.3H978.2V531.3H979.3V524.3H986.3V523.3Z" fill="#8C44FF"/>
<path d="M986.3 573.3H979.3V566.3H978.2V573.3H971.2V574.3H978.2V581.3H979.3V574.3H986.3V573.3Z" fill="#8C44FF"/>
<path d="M986.3 623.3H979.3V616.3H978.2V623.3H971.2V624.3H978.2V631.3H979.3V624.3H986.3V623.3Z" fill="#8C44FF"/>
<path d="M986.3 673.3H979.3V666.3H978.2V673.3H971.2V674.3H978.2V681.3H979.3V674.3H986.3V673.3Z" fill="#8C44FF"/>
<path d="M986.3 723.3H979.3V716.3H978.2V723.3H971.2V724.3H978.2V731.3H979.3V724.3H986.3V723.3Z" fill="#8C44FF"/>
<path d="M986.3 773.3H979.3V766.3H978.2V773.3H971.2V774.3H978.2V781.3H979.3V774.3H986.3V773.3Z" fill="#8C44FF"/>
<path d="M936.3 23.3H929.3V16.3H928.2V23.3H921.2V24.3H928.2V31.3H929.3V24.3H936.3V23.3Z" fill="#8C44FF"/>
<path d="M936.3 73.3H929.3V66.3H928.2V73.3H921.2V74.3H928.2V81.3H929.3V74.3H936.3V73.3Z" fill="#8C44FF"/>
<path d="M936.3 123.3H929.3V116.3H928.2V123.3H921.2V124.3H928.2V131.3H929.3V124.3H936.3V123.3Z" fill="#8C44FF"/>
<path d="M936.3 173.3H929.3V166.3H928.2V173.3H921.2V174.3H928.2V181.3H929.3V174.3H936.3V173.3Z" fill="#8C44FF"/>
<path d="M936.3 223.3H929.3V216.3H928.2V223.3H921.2V224.3H928.2V231.3H929.3V224.3H936.3V223.3Z" fill="#8C44FF"/>
<path d="M936.3 273.3H929.3V266.3H928.2V273.3H921.2V274.3H928.2V281.3H929.3V274.3H936.3V273.3Z" fill="#8C44FF"/>
<path d="M936.3 323.3H929.3V316.3H928.2V323.3H921.2V324.3H928.2V331.3H929.3V324.3H936.3V323.3Z" fill="#8C44FF"/>
<path d="M936.3 373.3H929.3V366.3H928.2V373.3H921.2V374.3H928.2V381.3H929.3V374.3H936.3V373.3Z" fill="#8C44FF"/>
<path d="M936.3 423.3H929.3V416.3H928.2V423.3H921.2V424.3H928.2V431.3H929.3V424.3H936.3V423.3Z" fill="#8C44FF"/>
<path d="M936.3 473.3H929.3V466.3H928.2V473.3H921.2V474.3H928.2V481.3H929.3V474.3H936.3V473.3Z" fill="#8C44FF"/>
<path d="M936.3 523.3H929.3V516.3H928.2V523.3H921.2V524.3H928.2V531.3H929.3V524.3H936.3V523.3Z" fill="#8C44FF"/>
<path d="M936.3 573.3H929.3V566.3H928.2V573.3H921.2V574.3H928.2V581.3H929.3V574.3H936.3V573.3Z" fill="#8C44FF"/>
<path d="M936.3 623.3H929.3V616.3H928.2V623.3H921.2V624.3H928.2V631.3H929.3V624.3H936.3V623.3Z" fill="#8C44FF"/>
<path d="M936.3 673.3H929.3V666.3H928.2V673.3H921.2V674.3H928.2V681.3H929.3V674.3H936.3V673.3Z" fill="#8C44FF"/>
<path d="M936.3 723.3H929.3V716.3H928.2V723.3H921.2V724.3H928.2V731.3H929.3V724.3H936.3V723.3Z" fill="#8C44FF"/>
<path d="M936.3 773.3H929.3V766.3H928.2V773.3H921.2V774.3H928.2V781.3H929.3V774.3H936.3V773.3Z" fill="#8C44FF"/>
<path d="M886.3 23.3H879.3V16.3H878.2V23.3H871.2V24.3H878.2V31.3H879.3V24.3H886.3V23.3Z" fill="#8C44FF"/>
<path d="M886.3 73.3H879.3V66.3H878.2V73.3H871.2V74.3H878.2V81.3H879.3V74.3H886.3V73.3Z" fill="#8C44FF"/>
<path d="M886.3 123.3H879.3V116.3H878.2V123.3H871.2V124.3H878.2V131.3H879.3V124.3H886.3V123.3Z" fill="#8C44FF"/>
<path d="M886.3 173.3H879.3V166.3H878.2V173.3H871.2V174.3H878.2V181.3H879.3V174.3H886.3V173.3Z" fill="#8C44FF"/>
<path d="M886.3 223.3H879.3V216.3H878.2V223.3H871.2V224.3H878.2V231.3H879.3V224.3H886.3V223.3Z" fill="#8C44FF"/>
<path d="M886.3 273.3H879.3V266.3H878.2V273.3H871.2V274.3H878.2V281.3H879.3V274.3H886.3V273.3Z" fill="#8C44FF"/>
<path d="M886.3 323.3H879.3V316.3H878.2V323.3H871.2V324.3H878.2V331.3H879.3V324.3H886.3V323.3Z" fill="#8C44FF"/>
<path d="M886.3 373.3H879.3V366.3H878.2V373.3H871.2V374.3H878.2V381.3H879.3V374.3H886.3V373.3Z" fill="#8C44FF"/>
<path d="M886.3 423.3H879.3V416.3H878.2V423.3H871.2V424.3H878.2V431.3H879.3V424.3H886.3V423.3Z" fill="#8C44FF"/>
<path d="M886.3 473.3H879.3V466.3H878.2V473.3H871.2V474.3H878.2V481.3H879.3V474.3H886.3V473.3Z" fill="#8C44FF"/>
<path d="M886.3 523.3H879.3V516.3H878.2V523.3H871.2V524.3H878.2V531.3H879.3V524.3H886.3V523.3Z" fill="#8C44FF"/>
<path d="M886.3 573.3H879.3V566.3H878.2V573.3H871.2V574.3H878.2V581.3H879.3V574.3H886.3V573.3Z" fill="#8C44FF"/>
<path d="M886.3 623.3H879.3V616.3H878.2V623.3H871.2V624.3H878.2V631.3H879.3V624.3H886.3V623.3Z" fill="#8C44FF"/>
<path d="M886.3 673.3H879.3V666.3H878.2V673.3H871.2V674.3H878.2V681.3H879.3V674.3H886.3V673.3Z" fill="#8C44FF"/>
<path d="M886.3 723.3H879.3V716.3H878.2V723.3H871.2V724.3H878.2V731.3H879.3V724.3H886.3V723.3Z" fill="#8C44FF"/>
<path d="M886.3 773.3H879.3V766.3H878.2V773.3H871.2V774.3H878.2V781.3H879.3V774.3H886.3V773.3Z" fill="#8C44FF"/>
<path d="M836.3 23.3H829.3V16.3H828.2V23.3H821.2V24.3H828.2V31.3H829.3V24.3H836.3V23.3Z" fill="#8C44FF"/>
<path d="M836.3 73.3H829.3V66.3H828.2V73.3H821.2V74.3H828.2V81.3H829.3V74.3H836.3V73.3Z" fill="#8C44FF"/>
<path d="M836.3 123.3H829.3V116.3H828.2V123.3H821.2V124.3H828.2V131.3H829.3V124.3H836.3V123.3Z" fill="#8C44FF"/>
<path d="M836.3 173.3H829.3V166.3H828.2V173.3H821.2V174.3H828.2V181.3H829.3V174.3H836.3V173.3Z" fill="#8C44FF"/>
<path d="M836.3 223.3H829.3V216.3H828.2V223.3H821.2V224.3H828.2V231.3H829.3V224.3H836.3V223.3Z" fill="#8C44FF"/>
<path d="M836.3 273.3H829.3V266.3H828.2V273.3H821.2V274.3H828.2V281.3H829.3V274.3H836.3V273.3Z" fill="#8C44FF"/>
<path d="M836.3 323.3H829.3V316.3H828.2V323.3H821.2V324.3H828.2V331.3H829.3V324.3H836.3V323.3Z" fill="#8C44FF"/>
<path d="M836.3 373.3H829.3V366.3H828.2V373.3H821.2V374.3H828.2V381.3H829.3V374.3H836.3V373.3Z" fill="#8C44FF"/>
<path d="M836.3 423.3H829.3V416.3H828.2V423.3H821.2V424.3H828.2V431.3H829.3V424.3H836.3V423.3Z" fill="#8C44FF"/>
<path d="M836.3 473.3H829.3V466.3H828.2V473.3H821.2V474.3H828.2V481.3H829.3V474.3H836.3V473.3Z" fill="#8C44FF"/>
<path d="M836.3 523.3H829.3V516.3H828.2V523.3H821.2V524.3H828.2V531.3H829.3V524.3H836.3V523.3Z" fill="#8C44FF"/>
<path d="M836.3 573.3H829.3V566.3H828.2V573.3H821.2V574.3H828.2V581.3H829.3V574.3H836.3V573.3Z" fill="#8C44FF"/>
<path d="M836.3 623.3H829.3V616.3H828.2V623.3H821.2V624.3H828.2V631.3H829.3V624.3H836.3V623.3Z" fill="#8C44FF"/>
<path d="M836.3 673.3H829.3V666.3H828.2V673.3H821.2V674.3H828.2V681.3H829.3V674.3H836.3V673.3Z" fill="#8C44FF"/>
<path d="M836.3 723.3H829.3V716.3H828.2V723.3H821.2V724.3H828.2V731.3H829.3V724.3H836.3V723.3Z" fill="#8C44FF"/>
<path d="M836.3 773.3H829.3V766.3H828.2V773.3H821.2V774.3H828.2V781.3H829.3V774.3H836.3V773.3Z" fill="#8C44FF"/>
<path d="M786.3 23.3H779.3V16.3H778.2V23.3H771.2V24.3H778.2V31.3H779.3V24.3H786.3V23.3Z" fill="#8C44FF"/>
<path d="M786.3 73.3H779.3V66.3H778.2V73.3H771.2V74.3H778.2V81.3H779.3V74.3H786.3V73.3Z" fill="#8C44FF"/>
<path d="M786.3 123.3H779.3V116.3H778.2V123.3H771.2V124.3H778.2V131.3H779.3V124.3H786.3V123.3Z" fill="#8C44FF"/>
<path d="M786.3 173.3H779.3V166.3H778.2V173.3H771.2V174.3H778.2V181.3H779.3V174.3H786.3V173.3Z" fill="#8C44FF"/>
<path d="M786.3 223.3H779.3V216.3H778.2V223.3H771.2V224.3H778.2V231.3H779.3V224.3H786.3V223.3Z" fill="#8C44FF"/>
<path d="M786.3 273.3H779.3V266.3H778.2V273.3H771.2V274.3H778.2V281.3H779.3V274.3H786.3V273.3Z" fill="#8C44FF"/>
<path d="M786.3 323.3H779.3V316.3H778.2V323.3H771.2V324.3H778.2V331.3H779.3V324.3H786.3V323.3Z" fill="#8C44FF"/>
<path d="M786.3 373.3H779.3V366.3H778.2V373.3H771.2V374.3H778.2V381.3H779.3V374.3H786.3V373.3Z" fill="#8C44FF"/>
<path d="M786.3 423.3H779.3V416.3H778.2V423.3H771.2V424.3H778.2V431.3H779.3V424.3H786.3V423.3Z" fill="#8C44FF"/>
<path d="M786.3 473.3H779.3V466.3H778.2V473.3H771.2V474.3H778.2V481.3H779.3V474.3H786.3V473.3Z" fill="#8C44FF"/>
<path d="M786.3 523.3H779.3V516.3H778.2V523.3H771.2V524.3H778.2V531.3H779.3V524.3H786.3V523.3Z" fill="#8C44FF"/>
<path d="M786.3 573.3H779.3V566.3H778.2V573.3H771.2V574.3H778.2V581.3H779.3V574.3H786.3V573.3Z" fill="#8C44FF"/>
<path d="M786.3 623.3H779.3V616.3H778.2V623.3H771.2V624.3H778.2V631.3H779.3V624.3H786.3V623.3Z" fill="#8C44FF"/>
<path d="M786.3 673.3H779.3V666.3H778.2V673.3H771.2V674.3H778.2V681.3H779.3V674.3H786.3V673.3Z" fill="#8C44FF"/>
<path d="M786.3 723.3H779.3V716.3H778.2V723.3H771.2V724.3H778.2V731.3H779.3V724.3H786.3V723.3Z" fill="#8C44FF"/>
<path d="M786.3 773.3H779.3V766.3H778.2V773.3H771.2V774.3H778.2V781.3H779.3V774.3H786.3V773.3Z" fill="#8C44FF"/>
<path d="M736.3 23.3H729.3V16.3H728.2V23.3H721.2V24.3H728.2V31.3H729.3V24.3H736.3V23.3Z" fill="#8C44FF"/>
<path d="M736.3 73.3H729.3V66.3H728.2V73.3H721.2V74.3H728.2V81.3H729.3V74.3H736.3V73.3Z" fill="#8C44FF"/>
<path d="M736.3 123.3H729.3V116.3H728.2V123.3H721.2V124.3H728.2V131.3H729.3V124.3H736.3V123.3Z" fill="#8C44FF"/>
<path d="M736.3 173.3H729.3V166.3H728.2V173.3H721.2V174.3H728.2V181.3H729.3V174.3H736.3V173.3Z" fill="#8C44FF"/>
<path d="M736.3 223.3H729.3V216.3H728.2V223.3H721.2V224.3H728.2V231.3H729.3V224.3H736.3V223.3Z" fill="#8C44FF"/>
<path d="M736.3 273.3H729.3V266.3H728.2V273.3H721.2V274.3H728.2V281.3H729.3V274.3H736.3V273.3Z" fill="#8C44FF"/>
<path d="M736.3 323.3H729.3V316.3H728.2V323.3H721.2V324.3H728.2V331.3H729.3V324.3H736.3V323.3Z" fill="#8C44FF"/>
<path d="M736.3 373.3H729.3V366.3H728.2V373.3H721.2V374.3H728.2V381.3H729.3V374.3H736.3V373.3Z" fill="#8C44FF"/>
<path d="M736.3 423.3H729.3V416.3H728.2V423.3H721.2V424.3H728.2V431.3H729.3V424.3H736.3V423.3Z" fill="#8C44FF"/>
<path d="M736.3 473.3H729.3V466.3H728.2V473.3H721.2V474.3H728.2V481.3H729.3V474.3H736.3V473.3Z" fill="#8C44FF"/>
<path d="M736.3 523.3H729.3V516.3H728.2V523.3H721.2V524.3H728.2V531.3H729.3V524.3H736.3V523.3Z" fill="#8C44FF"/>
<path d="M736.3 573.3H729.3V566.3H728.2V573.3H721.2V574.3H728.2V581.3H729.3V574.3H736.3V573.3Z" fill="#8C44FF"/>
<path d="M736.3 623.3H729.3V616.3H728.2V623.3H721.2V624.3H728.2V631.3H729.3V624.3H736.3V623.3Z" fill="#8C44FF"/>
<path d="M736.3 673.3H729.3V666.3H728.2V673.3H721.2V674.3H728.2V681.3H729.3V674.3H736.3V673.3Z" fill="#8C44FF"/>
<path d="M736.3 723.3H729.3V716.3H728.2V723.3H721.2V724.3H728.2V731.3H729.3V724.3H736.3V723.3Z" fill="#8C44FF"/>
<path d="M736.3 773.3H729.3V766.3H728.2V773.3H721.2V774.3H728.2V781.3H729.3V774.3H736.3V773.3Z" fill="#8C44FF"/>
<path d="M686.3 23.3H679.3V16.3H678.2V23.3H671.2V24.3H678.2V31.3H679.3V24.3H686.3V23.3Z" fill="#8C44FF"/>
<path d="M686.3 73.3H679.3V66.3H678.2V73.3H671.2V74.3H678.2V81.3H679.3V74.3H686.3V73.3Z" fill="#8C44FF"/>
<path d="M686.3 123.3H679.3V116.3H678.2V123.3H671.2V124.3H678.2V131.3H679.3V124.3H686.3V123.3Z" fill="#8C44FF"/>
<path d="M686.3 173.3H679.3V166.3H678.2V173.3H671.2V174.3H678.2V181.3H679.3V174.3H686.3V173.3Z" fill="#8C44FF"/>
<path d="M686.3 223.3H679.3V216.3H678.2V223.3H671.2V224.3H678.2V231.3H679.3V224.3H686.3V223.3Z" fill="#8C44FF"/>
<path d="M686.3 273.3H679.3V266.3H678.2V273.3H671.2V274.3H678.2V281.3H679.3V274.3H686.3V273.3Z" fill="#8C44FF"/>
<path d="M686.3 323.3H679.3V316.3H678.2V323.3H671.2V324.3H678.2V331.3H679.3V324.3H686.3V323.3Z" fill="#8C44FF"/>
<path d="M686.3 373.3H679.3V366.3H678.2V373.3H671.2V374.3H678.2V381.3H679.3V374.3H686.3V373.3Z" fill="#8C44FF"/>
<path d="M686.3 423.3H679.3V416.3H678.2V423.3H671.2V424.3H678.2V431.3H679.3V424.3H686.3V423.3Z" fill="#8C44FF"/>
<path d="M686.3 473.3H679.3V466.3H678.2V473.3H671.2V474.3H678.2V481.3H679.3V474.3H686.3V473.3Z" fill="#8C44FF"/>
<path d="M686.3 523.3H679.3V516.3H678.2V523.3H671.2V524.3H678.2V531.3H679.3V524.3H686.3V523.3Z" fill="#8C44FF"/>
<path d="M686.3 573.3H679.3V566.3H678.2V573.3H671.2V574.3H678.2V581.3H679.3V574.3H686.3V573.3Z" fill="#8C44FF"/>
<path d="M686.3 623.3H679.3V616.3H678.2V623.3H671.2V624.3H678.2V631.3H679.3V624.3H686.3V623.3Z" fill="#8C44FF"/>
<path d="M686.3 673.3H679.3V666.3H678.2V673.3H671.2V674.3H678.2V681.3H679.3V674.3H686.3V673.3Z" fill="#8C44FF"/>
<path d="M686.3 723.3H679.3V716.3H678.2V723.3H671.2V724.3H678.2V731.3H679.3V724.3H686.3V723.3Z" fill="#8C44FF"/>
<path d="M686.3 773.3H679.3V766.3H678.2V773.3H671.2V774.3H678.2V781.3H679.3V774.3H686.3V773.3Z" fill="#8C44FF"/>
<path d="M636.3 23.3H629.3V16.3H628.2V23.3H621.2V24.3H628.2V31.3H629.3V24.3H636.3V23.3Z" fill="#8C44FF"/>
<path d="M636.3 73.3H629.3V66.3H628.2V73.3H621.2V74.3H628.2V81.3H629.3V74.3H636.3V73.3Z" fill="#8C44FF"/>
<path d="M636.3 123.3H629.3V116.3H628.2V123.3H621.2V124.3H628.2V131.3H629.3V124.3H636.3V123.3Z" fill="#8C44FF"/>
<path d="M636.3 173.3H629.3V166.3H628.2V173.3H621.2V174.3H628.2V181.3H629.3V174.3H636.3V173.3Z" fill="#8C44FF"/>
<path d="M636.3 223.3H629.3V216.3H628.2V223.3H621.2V224.3H628.2V231.3H629.3V224.3H636.3V223.3Z" fill="#8C44FF"/>
<path d="M636.3 273.3H629.3V266.3H628.2V273.3H621.2V274.3H628.2V281.3H629.3V274.3H636.3V273.3Z" fill="#8C44FF"/>
<path d="M636.3 323.3H629.3V316.3H628.2V323.3H621.2V324.3H628.2V331.3H629.3V324.3H636.3V323.3Z" fill="#8C44FF"/>
<path d="M636.3 373.3H629.3V366.3H628.2V373.3H621.2V374.3H628.2V381.3H629.3V374.3H636.3V373.3Z" fill="#8C44FF"/>
<path d="M636.3 423.3H629.3V416.3H628.2V423.3H621.2V424.3H628.2V431.3H629.3V424.3H636.3V423.3Z" fill="#8C44FF"/>
<path d="M636.3 473.3H629.3V466.3H628.2V473.3H621.2V474.3H628.2V481.3H629.3V474.3H636.3V473.3Z" fill="#8C44FF"/>
<path d="M636.3 523.3H629.3V516.3H628.2V523.3H621.2V524.3H628.2V531.3H629.3V524.3H636.3V523.3Z" fill="#8C44FF"/>
<path d="M636.3 573.3H629.3V566.3H628.2V573.3H621.2V574.3H628.2V581.3H629.3V574.3H636.3V573.3Z" fill="#8C44FF"/>
<path d="M636.3 623.3H629.3V616.3H628.2V623.3H621.2V624.3H628.2V631.3H629.3V624.3H636.3V623.3Z" fill="#8C44FF"/>
<path d="M636.3 673.3H629.3V666.3H628.2V673.3H621.2V674.3H628.2V681.3H629.3V674.3H636.3V673.3Z" fill="#8C44FF"/>
<path d="M636.3 723.3H629.3V716.3H628.2V723.3H621.2V724.3H628.2V731.3H629.3V724.3H636.3V723.3Z" fill="#8C44FF"/>
<path d="M636.3 773.3H629.3V766.3H628.2V773.3H621.2V774.3H628.2V781.3H629.3V774.3H636.3V773.3Z" fill="#8C44FF"/>
<path d="M586.3 23.3H579.3V16.3H578.2V23.3H571.2V24.3H578.2V31.3H579.3V24.3H586.3V23.3Z" fill="#8C44FF"/>
<path d="M586.3 73.3H579.3V66.3H578.2V73.3H571.2V74.3H578.2V81.3H579.3V74.3H586.3V73.3Z" fill="#8C44FF"/>
<path d="M586.3 123.3H579.3V116.3H578.2V123.3H571.2V124.3H578.2V131.3H579.3V124.3H586.3V123.3Z" fill="#8C44FF"/>
<path d="M586.3 173.3H579.3V166.3H578.2V173.3H571.2V174.3H578.2V181.3H579.3V174.3H586.3V173.3Z" fill="#8C44FF"/>
<path d="M586.3 223.3H579.3V216.3H578.2V223.3H571.2V224.3H578.2V231.3H579.3V224.3H586.3V223.3Z" fill="#8C44FF"/>
<path d="M586.3 273.3H579.3V266.3H578.2V273.3H571.2V274.3H578.2V281.3H579.3V274.3H586.3V273.3Z" fill="#8C44FF"/>
<path d="M586.3 323.3H579.3V316.3H578.2V323.3H571.2V324.3H578.2V331.3H579.3V324.3H586.3V323.3Z" fill="#8C44FF"/>
<path d="M586.3 373.3H579.3V366.3H578.2V373.3H571.2V374.3H578.2V381.3H579.3V374.3H586.3V373.3Z" fill="#8C44FF"/>
<path d="M586.3 423.3H579.3V416.3H578.2V423.3H571.2V424.3H578.2V431.3H579.3V424.3H586.3V423.3Z" fill="#8C44FF"/>
<path d="M586.3 473.3H579.3V466.3H578.2V473.3H571.2V474.3H578.2V481.3H579.3V474.3H586.3V473.3Z" fill="#8C44FF"/>
<path d="M586.3 523.3H579.3V516.3H578.2V523.3H571.2V524.3H578.2V531.3H579.3V524.3H586.3V523.3Z" fill="#8C44FF"/>
<path d="M586.3 573.3H579.3V566.3H578.2V573.3H571.2V574.3H578.2V581.3H579.3V574.3H586.3V573.3Z" fill="#8C44FF"/>
<path d="M586.3 623.3H579.3V616.3H578.2V623.3H571.2V624.3H578.2V631.3H579.3V624.3H586.3V623.3Z" fill="#8C44FF"/>
<path d="M586.3 673.3H579.3V666.3H578.2V673.3H571.2V674.3H578.2V681.3H579.3V674.3H586.3V673.3Z" fill="#8C44FF"/>
<path d="M586.3 723.3H579.3V716.3H578.2V723.3H571.2V724.3H578.2V731.3H579.3V724.3H586.3V723.3Z" fill="#8C44FF"/>
<path d="M586.3 773.3H579.3V766.3H578.2V773.3H571.2V774.3H578.2V781.3H579.3V774.3H586.3V773.3Z" fill="#8C44FF"/>
<path d="M536.3 23.3H529.3V16.3H528.2V23.3H521.2V24.3H528.2V31.3H529.3V24.3H536.3V23.3Z" fill="#8C44FF"/>
<path d="M536.3 73.3H529.3V66.3H528.2V73.3H521.2V74.3H528.2V81.3H529.3V74.3H536.3V73.3Z" fill="#8C44FF"/>
<path d="M536.3 123.3H529.3V116.3H528.2V123.3H521.2V124.3H528.2V131.3H529.3V124.3H536.3V123.3Z" fill="#8C44FF"/>
<path d="M536.3 173.3H529.3V166.3H528.2V173.3H521.2V174.3H528.2V181.3H529.3V174.3H536.3V173.3Z" fill="#8C44FF"/>
<path d="M536.3 223.3H529.3V216.3H528.2V223.3H521.2V224.3H528.2V231.3H529.3V224.3H536.3V223.3Z" fill="#8C44FF"/>
<path d="M536.3 273.3H529.3V266.3H528.2V273.3H521.2V274.3H528.2V281.3H529.3V274.3H536.3V273.3Z" fill="#8C44FF"/>
<path d="M536.3 323.3H529.3V316.3H528.2V323.3H521.2V324.3H528.2V331.3H529.3V324.3H536.3V323.3Z" fill="#8C44FF"/>
<path d="M536.3 373.3H529.3V366.3H528.2V373.3H521.2V374.3H528.2V381.3H529.3V374.3H536.3V373.3Z" fill="#8C44FF"/>
<path d="M536.3 423.3H529.3V416.3H528.2V423.3H521.2V424.3H528.2V431.3H529.3V424.3H536.3V423.3Z" fill="#8C44FF"/>
<path d="M536.3 473.3H529.3V466.3H528.2V473.3H521.2V474.3H528.2V481.3H529.3V474.3H536.3V473.3Z" fill="#8C44FF"/>
<path d="M536.3 523.3H529.3V516.3H528.2V523.3H521.2V524.3H528.2V531.3H529.3V524.3H536.3V523.3Z" fill="#8C44FF"/>
<path d="M536.3 573.3H529.3V566.3H528.2V573.3H521.2V574.3H528.2V581.3H529.3V574.3H536.3V573.3Z" fill="#8C44FF"/>
<path d="M536.3 623.3H529.3V616.3H528.2V623.3H521.2V624.3H528.2V631.3H529.3V624.3H536.3V623.3Z" fill="#8C44FF"/>
<path d="M536.3 673.3H529.3V666.3H528.2V673.3H521.2V674.3H528.2V681.3H529.3V674.3H536.3V673.3Z" fill="#8C44FF"/>
<path d="M536.3 723.3H529.3V716.3H528.2V723.3H521.2V724.3H528.2V731.3H529.3V724.3H536.3V723.3Z" fill="#8C44FF"/>
<path d="M536.3 773.3H529.3V766.3H528.2V773.3H521.2V774.3H528.2V781.3H529.3V774.3H536.3V773.3Z" fill="#8C44FF"/>
<path d="M486.3 23.3H479.3V16.3H478.2V23.3H471.2V24.3H478.2V31.3H479.3V24.3H486.3V23.3Z" fill="#8C44FF"/>
<path d="M486.3 73.3H479.3V66.3H478.2V73.3H471.2V74.3H478.2V81.3H479.3V74.3H486.3V73.3Z" fill="#8C44FF"/>
<path d="M486.3 123.3H479.3V116.3H478.2V123.3H471.2V124.3H478.2V131.3H479.3V124.3H486.3V123.3Z" fill="#8C44FF"/>
<path d="M486.3 173.3H479.3V166.3H478.2V173.3H471.2V174.3H478.2V181.3H479.3V174.3H486.3V173.3Z" fill="#8C44FF"/>
<path d="M486.3 223.3H479.3V216.3H478.2V223.3H471.2V224.3H478.2V231.3H479.3V224.3H486.3V223.3Z" fill="#8C44FF"/>
<path d="M486.3 273.3H479.3V266.3H478.2V273.3H471.2V274.3H478.2V281.3H479.3V274.3H486.3V273.3Z" fill="#8C44FF"/>
<path d="M486.3 323.3H479.3V316.3H478.2V323.3H471.2V324.3H478.2V331.3H479.3V324.3H486.3V323.3Z" fill="#8C44FF"/>
<path d="M486.3 373.3H479.3V366.3H478.2V373.3H471.2V374.3H478.2V381.3H479.3V374.3H486.3V373.3Z" fill="#8C44FF"/>
<path d="M486.3 423.3H479.3V416.3H478.2V423.3H471.2V424.3H478.2V431.3H479.3V424.3H486.3V423.3Z" fill="#8C44FF"/>
<path d="M486.3 473.3H479.3V466.3H478.2V473.3H471.2V474.3H478.2V481.3H479.3V474.3H486.3V473.3Z" fill="#8C44FF"/>
<path d="M486.3 523.3H479.3V516.3H478.2V523.3H471.2V524.3H478.2V531.3H479.3V524.3H486.3V523.3Z" fill="#8C44FF"/>
<path d="M486.3 573.3H479.3V566.3H478.2V573.3H471.2V574.3H478.2V581.3H479.3V574.3H486.3V573.3Z" fill="#8C44FF"/>
<path d="M486.3 623.3H479.3V616.3H478.2V623.3H471.2V624.3H478.2V631.3H479.3V624.3H486.3V623.3Z" fill="#8C44FF"/>
<path d="M486.3 673.3H479.3V666.3H478.2V673.3H471.2V674.3H478.2V681.3H479.3V674.3H486.3V673.3Z" fill="#8C44FF"/>
<path d="M486.3 723.3H479.3V716.3H478.2V723.3H471.2V724.3H478.2V731.3H479.3V724.3H486.3V723.3Z" fill="#8C44FF"/>
<path d="M486.3 773.3H479.3V766.3H478.2V773.3H471.2V774.3H478.2V781.3H479.3V774.3H486.3V773.3Z" fill="#8C44FF"/>
<path d="M436.3 23.3H429.3V16.3H428.2V23.3H421.2V24.3H428.2V31.3H429.3V24.3H436.3V23.3Z" fill="#8C44FF"/>
<path d="M436.3 73.3H429.3V66.3H428.2V73.3H421.2V74.3H428.2V81.3H429.3V74.3H436.3V73.3Z" fill="#8C44FF"/>
<path d="M436.3 123.3H429.3V116.3H428.2V123.3H421.2V124.3H428.2V131.3H429.3V124.3H436.3V123.3Z" fill="#8C44FF"/>
<path d="M436.3 173.3H429.3V166.3H428.2V173.3H421.2V174.3H428.2V181.3H429.3V174.3H436.3V173.3Z" fill="#8C44FF"/>
<path d="M436.3 223.3H429.3V216.3H428.2V223.3H421.2V224.3H428.2V231.3H429.3V224.3H436.3V223.3Z" fill="#8C44FF"/>
<path d="M436.3 273.3H429.3V266.3H428.2V273.3H421.2V274.3H428.2V281.3H429.3V274.3H436.3V273.3Z" fill="#8C44FF"/>
<path d="M436.3 323.3H429.3V316.3H428.2V323.3H421.2V324.3H428.2V331.3H429.3V324.3H436.3V323.3Z" fill="#8C44FF"/>
<path d="M436.3 373.3H429.3V366.3H428.2V373.3H421.2V374.3H428.2V381.3H429.3V374.3H436.3V373.3Z" fill="#8C44FF"/>
<path d="M436.3 423.3H429.3V416.3H428.2V423.3H421.2V424.3H428.2V431.3H429.3V424.3H436.3V423.3Z" fill="#8C44FF"/>
<path d="M436.3 473.3H429.3V466.3H428.2V473.3H421.2V474.3H428.2V481.3H429.3V474.3H436.3V473.3Z" fill="#8C44FF"/>
<path d="M436.3 523.3H429.3V516.3H428.2V523.3H421.2V524.3H428.2V531.3H429.3V524.3H436.3V523.3Z" fill="#8C44FF"/>
<path d="M436.3 573.3H429.3V566.3H428.2V573.3H421.2V574.3H428.2V581.3H429.3V574.3H436.3V573.3Z" fill="#8C44FF"/>
<path d="M436.3 623.3H429.3V616.3H428.2V623.3H421.2V624.3H428.2V631.3H429.3V624.3H436.3V623.3Z" fill="#8C44FF"/>
<path d="M436.3 673.3H429.3V666.3H428.2V673.3H421.2V674.3H428.2V681.3H429.3V674.3H436.3V673.3Z" fill="#8C44FF"/>
<path d="M436.3 723.3H429.3V716.3H428.2V723.3H421.2V724.3H428.2V731.3H429.3V724.3H436.3V723.3Z" fill="#8C44FF"/>
<path d="M436.3 773.3H429.3V766.3H428.2V773.3H421.2V774.3H428.2V781.3H429.3V774.3H436.3V773.3Z" fill="#8C44FF"/>
<path d="M386.3 23.3H379.3V16.3H378.2V23.3H371.2V24.3H378.2V31.3H379.3V24.3H386.3V23.3Z" fill="#8C44FF"/>
<path d="M386.3 73.3H379.3V66.3H378.2V73.3H371.2V74.3H378.2V81.3H379.3V74.3H386.3V73.3Z" fill="#8C44FF"/>
<path d="M386.3 123.3H379.3V116.3H378.2V123.3H371.2V124.3H378.2V131.3H379.3V124.3H386.3V123.3Z" fill="#8C44FF"/>
<path d="M386.3 173.3H379.3V166.3H378.2V173.3H371.2V174.3H378.2V181.3H379.3V174.3H386.3V173.3Z" fill="#8C44FF"/>
<path d="M386.3 223.3H379.3V216.3H378.2V223.3H371.2V224.3H378.2V231.3H379.3V224.3H386.3V223.3Z" fill="#8C44FF"/>
<path d="M386.3 273.3H379.3V266.3H378.2V273.3H371.2V274.3H378.2V281.3H379.3V274.3H386.3V273.3Z" fill="#8C44FF"/>
<path d="M386.3 323.3H379.3V316.3H378.2V323.3H371.2V324.3H378.2V331.3H379.3V324.3H386.3V323.3Z" fill="#8C44FF"/>
<path d="M386.3 373.3H379.3V366.3H378.2V373.3H371.2V374.3H378.2V381.3H379.3V374.3H386.3V373.3Z" fill="#8C44FF"/>
<path d="M386.3 423.3H379.3V416.3H378.2V423.3H371.2V424.3H378.2V431.3H379.3V424.3H386.3V423.3Z" fill="#8C44FF"/>
<path d="M386.3 473.3H379.3V466.3H378.2V473.3H371.2V474.3H378.2V481.3H379.3V474.3H386.3V473.3Z" fill="#8C44FF"/>
<path d="M386.3 523.3H379.3V516.3H378.2V523.3H371.2V524.3H378.2V531.3H379.3V524.3H386.3V523.3Z" fill="#8C44FF"/>
<path d="M386.3 573.3H379.3V566.3H378.2V573.3H371.2V574.3H378.2V581.3H379.3V574.3H386.3V573.3Z" fill="#8C44FF"/>
<path d="M386.3 623.3H379.3V616.3H378.2V623.3H371.2V624.3H378.2V631.3H379.3V624.3H386.3V623.3Z" fill="#8C44FF"/>
<path d="M386.3 673.3H379.3V666.3H378.2V673.3H371.2V674.3H378.2V681.3H379.3V674.3H386.3V673.3Z" fill="#8C44FF"/>
<path d="M386.3 723.3H379.3V716.3H378.2V723.3H371.2V724.3H378.2V731.3H379.3V724.3H386.3V723.3Z" fill="#8C44FF"/>
<path d="M386.3 773.3H379.3V766.3H378.2V773.3H371.2V774.3H378.2V781.3H379.3V774.3H386.3V773.3Z" fill="#8C44FF"/>
<path d="M336.3 23.3H329.3V16.3H328.2V23.3H321.2V24.3H328.2V31.3H329.3V24.3H336.3V23.3Z" fill="#8C44FF"/>
<path d="M336.3 73.3H329.3V66.3H328.2V73.3H321.2V74.3H328.2V81.3H329.3V74.3H336.3V73.3Z" fill="#8C44FF"/>
<path d="M336.3 123.3H329.3V116.3H328.2V123.3H321.2V124.3H328.2V131.3H329.3V124.3H336.3V123.3Z" fill="#8C44FF"/>
<path d="M336.3 173.3H329.3V166.3H328.2V173.3H321.2V174.3H328.2V181.3H329.3V174.3H336.3V173.3Z" fill="#8C44FF"/>
<path d="M336.3 223.3H329.3V216.3H328.2V223.3H321.2V224.3H328.2V231.3H329.3V224.3H336.3V223.3Z" fill="#8C44FF"/>
<path d="M336.3 273.3H329.3V266.3H328.2V273.3H321.2V274.3H328.2V281.3H329.3V274.3H336.3V273.3Z" fill="#8C44FF"/>
<path d="M336.3 323.3H329.3V316.3H328.2V323.3H321.2V324.3H328.2V331.3H329.3V324.3H336.3V323.3Z" fill="#8C44FF"/>
<path d="M336.3 373.3H329.3V366.3H328.2V373.3H321.2V374.3H328.2V381.3H329.3V374.3H336.3V373.3Z" fill="#8C44FF"/>
<path d="M336.3 423.3H329.3V416.3H328.2V423.3H321.2V424.3H328.2V431.3H329.3V424.3H336.3V423.3Z" fill="#8C44FF"/>
<path d="M336.3 473.3H329.3V466.3H328.2V473.3H321.2V474.3H328.2V481.3H329.3V474.3H336.3V473.3Z" fill="#8C44FF"/>
<path d="M336.3 523.3H329.3V516.3H328.2V523.3H321.2V524.3H328.2V531.3H329.3V524.3H336.3V523.3Z" fill="#8C44FF"/>
<path d="M336.3 573.3H329.3V566.3H328.2V573.3H321.2V574.3H328.2V581.3H329.3V574.3H336.3V573.3Z" fill="#8C44FF"/>
<path d="M336.3 623.3H329.3V616.3H328.2V623.3H321.2V624.3H328.2V631.3H329.3V624.3H336.3V623.3Z" fill="#8C44FF"/>
<path d="M336.3 673.3H329.3V666.3H328.2V673.3H321.2V674.3H328.2V681.3H329.3V674.3H336.3V673.3Z" fill="#8C44FF"/>
<path d="M336.3 723.3H329.3V716.3H328.2V723.3H321.2V724.3H328.2V731.3H329.3V724.3H336.3V723.3Z" fill="#8C44FF"/>
<path d="M336.3 773.3H329.3V766.3H328.2V773.3H321.2V774.3H328.2V781.3H329.3V774.3H336.3V773.3Z" fill="#8C44FF"/>
<path d="M286.3 23.3H279.3V16.3H278.2V23.3H271.2V24.3H278.2V31.3H279.3V24.3H286.3V23.3Z" fill="#8C44FF"/>
<path d="M286.3 73.3H279.3V66.3H278.2V73.3H271.2V74.3H278.2V81.3H279.3V74.3H286.3V73.3Z" fill="#8C44FF"/>
<path d="M286.3 123.3H279.3V116.3H278.2V123.3H271.2V124.3H278.2V131.3H279.3V124.3H286.3V123.3Z" fill="#8C44FF"/>
<path d="M286.3 173.3H279.3V166.3H278.2V173.3H271.2V174.3H278.2V181.3H279.3V174.3H286.3V173.3Z" fill="#8C44FF"/>
<path d="M286.3 223.3H279.3V216.3H278.2V223.3H271.2V224.3H278.2V231.3H279.3V224.3H286.3V223.3Z" fill="#8C44FF"/>
<path d="M286.3 273.3H279.3V266.3H278.2V273.3H271.2V274.3H278.2V281.3H279.3V274.3H286.3V273.3Z" fill="#8C44FF"/>
<path d="M286.3 323.3H279.3V316.3H278.2V323.3H271.2V324.3H278.2V331.3H279.3V324.3H286.3V323.3Z" fill="#8C44FF"/>
<path d="M286.3 373.3H279.3V366.3H278.2V373.3H271.2V374.3H278.2V381.3H279.3V374.3H286.3V373.3Z" fill="#8C44FF"/>
<path d="M286.3 423.3H279.3V416.3H278.2V423.3H271.2V424.3H278.2V431.3H279.3V424.3H286.3V423.3Z" fill="#8C44FF"/>
<path d="M286.3 473.3H279.3V466.3H278.2V473.3H271.2V474.3H278.2V481.3H279.3V474.3H286.3V473.3Z" fill="#8C44FF"/>
<path d="M286.3 523.3H279.3V516.3H278.2V523.3H271.2V524.3H278.2V531.3H279.3V524.3H286.3V523.3Z" fill="#8C44FF"/>
<path d="M286.3 573.3H279.3V566.3H278.2V573.3H271.2V574.3H278.2V581.3H279.3V574.3H286.3V573.3Z" fill="#8C44FF"/>
<path d="M286.3 623.3H279.3V616.3H278.2V623.3H271.2V624.3H278.2V631.3H279.3V624.3H286.3V623.3Z" fill="#8C44FF"/>
<path d="M286.3 673.3H279.3V666.3H278.2V673.3H271.2V674.3H278.2V681.3H279.3V674.3H286.3V673.3Z" fill="#8C44FF"/>
<path d="M286.3 723.3H279.3V716.3H278.2V723.3H271.2V724.3H278.2V731.3H279.3V724.3H286.3V723.3Z" fill="#8C44FF"/>
<path d="M286.3 773.3H279.3V766.3H278.2V773.3H271.2V774.3H278.2V781.3H279.3V774.3H286.3V773.3Z" fill="#8C44FF"/>
<path d="M236.3 23.3H229.3V16.3H228.2V23.3H221.2V24.3H228.2V31.3H229.3V24.3H236.3V23.3Z" fill="#8C44FF"/>
<path d="M236.3 73.3H229.3V66.3H228.2V73.3H221.2V74.3H228.2V81.3H229.3V74.3H236.3V73.3Z" fill="#8C44FF"/>
<path d="M236.3 123.3H229.3V116.3H228.2V123.3H221.2V124.3H228.2V131.3H229.3V124.3H236.3V123.3Z" fill="#8C44FF"/>
<path d="M236.3 173.3H229.3V166.3H228.2V173.3H221.2V174.3H228.2V181.3H229.3V174.3H236.3V173.3Z" fill="#8C44FF"/>
<path d="M236.3 223.3H229.3V216.3H228.2V223.3H221.2V224.3H228.2V231.3H229.3V224.3H236.3V223.3Z" fill="#8C44FF"/>
<path d="M236.3 273.3H229.3V266.3H228.2V273.3H221.2V274.3H228.2V281.3H229.3V274.3H236.3V273.3Z" fill="#8C44FF"/>
<path d="M236.3 323.3H229.3V316.3H228.2V323.3H221.2V324.3H228.2V331.3H229.3V324.3H236.3V323.3Z" fill="#8C44FF"/>
<path d="M236.3 373.3H229.3V366.3H228.2V373.3H221.2V374.3H228.2V381.3H229.3V374.3H236.3V373.3Z" fill="#8C44FF"/>
<path d="M236.3 423.3H229.3V416.3H228.2V423.3H221.2V424.3H228.2V431.3H229.3V424.3H236.3V423.3Z" fill="#8C44FF"/>
<path d="M236.3 473.3H229.3V466.3H228.2V473.3H221.2V474.3H228.2V481.3H229.3V474.3H236.3V473.3Z" fill="#8C44FF"/>
<path d="M236.3 523.3H229.3V516.3H228.2V523.3H221.2V524.3H228.2V531.3H229.3V524.3H236.3V523.3Z" fill="#8C44FF"/>
<path d="M236.3 573.3H229.3V566.3H228.2V573.3H221.2V574.3H228.2V581.3H229.3V574.3H236.3V573.3Z" fill="#8C44FF"/>
<path d="M236.3 623.3H229.3V616.3H228.2V623.3H221.2V624.3H228.2V631.3H229.3V624.3H236.3V623.3Z" fill="#8C44FF"/>
<path d="M236.3 673.3H229.3V666.3H228.2V673.3H221.2V674.3H228.2V681.3H229.3V674.3H236.3V673.3Z" fill="#8C44FF"/>
<path d="M236.3 723.3H229.3V716.3H228.2V723.3H221.2V724.3H228.2V731.3H229.3V724.3H236.3V723.3Z" fill="#8C44FF"/>
<path d="M236.3 773.3H229.3V766.3H228.2V773.3H221.2V774.3H228.2V781.3H229.3V774.3H236.3V773.3Z" fill="#8C44FF"/>
<path d="M186.3 23.3H179.3V16.3H178.2V23.3H171.2V24.3H178.2V31.3H179.3V24.3H186.3V23.3Z" fill="#8C44FF"/>
<path d="M186.3 73.3H179.3V66.3H178.2V73.3H171.2V74.3H178.2V81.3H179.3V74.3H186.3V73.3Z" fill="#8C44FF"/>
<path d="M186.3 123.3H179.3V116.3H178.2V123.3H171.2V124.3H178.2V131.3H179.3V124.3H186.3V123.3Z" fill="#8C44FF"/>
<path d="M186.3 173.3H179.3V166.3H178.2V173.3H171.2V174.3H178.2V181.3H179.3V174.3H186.3V173.3Z" fill="#8C44FF"/>
<path d="M186.3 223.3H179.3V216.3H178.2V223.3H171.2V224.3H178.2V231.3H179.3V224.3H186.3V223.3Z" fill="#8C44FF"/>
<path d="M186.3 273.3H179.3V266.3H178.2V273.3H171.2V274.3H178.2V281.3H179.3V274.3H186.3V273.3Z" fill="#8C44FF"/>
<path d="M186.3 323.3H179.3V316.3H178.2V323.3H171.2V324.3H178.2V331.3H179.3V324.3H186.3V323.3Z" fill="#8C44FF"/>
<path d="M186.3 373.3H179.3V366.3H178.2V373.3H171.2V374.3H178.2V381.3H179.3V374.3H186.3V373.3Z" fill="#8C44FF"/>
<path d="M186.3 423.3H179.3V416.3H178.2V423.3H171.2V424.3H178.2V431.3H179.3V424.3H186.3V423.3Z" fill="#8C44FF"/>
<path d="M186.3 473.3H179.3V466.3H178.2V473.3H171.2V474.3H178.2V481.3H179.3V474.3H186.3V473.3Z" fill="#8C44FF"/>
<path d="M186.3 523.3H179.3V516.3H178.2V523.3H171.2V524.3H178.2V531.3H179.3V524.3H186.3V523.3Z" fill="#8C44FF"/>
<path d="M186.3 573.3H179.3V566.3H178.2V573.3H171.2V574.3H178.2V581.3H179.3V574.3H186.3V573.3Z" fill="#8C44FF"/>
<path d="M186.3 623.3H179.3V616.3H178.2V623.3H171.2V624.3H178.2V631.3H179.3V624.3H186.3V623.3Z" fill="#8C44FF"/>
<path d="M186.3 673.3H179.3V666.3H178.2V673.3H171.2V674.3H178.2V681.3H179.3V674.3H186.3V673.3Z" fill="#8C44FF"/>
<path d="M186.3 723.3H179.3V716.3H178.2V723.3H171.2V724.3H178.2V731.3H179.3V724.3H186.3V723.3Z" fill="#8C44FF"/>
<path d="M186.3 773.3H179.3V766.3H178.2V773.3H171.2V774.3H178.2V781.3H179.3V774.3H186.3V773.3Z" fill="#8C44FF"/>
<path d="M136.3 23.3H129.3V16.3H128.2V23.3H121.2V24.3H128.2V31.3H129.3V24.3H136.3V23.3Z" fill="#8C44FF"/>
<path d="M136.3 73.3H129.3V66.3H128.2V73.3H121.2V74.3H128.2V81.3H129.3V74.3H136.3V73.3Z" fill="#8C44FF"/>
<path d="M136.3 123.3H129.3V116.3H128.2V123.3H121.2V124.3H128.2V131.3H129.3V124.3H136.3V123.3Z" fill="#8C44FF"/>
<path d="M136.3 173.3H129.3V166.3H128.2V173.3H121.2V174.3H128.2V181.3H129.3V174.3H136.3V173.3Z" fill="#8C44FF"/>
<path d="M136.3 223.3H129.3V216.3H128.2V223.3H121.2V224.3H128.2V231.3H129.3V224.3H136.3V223.3Z" fill="#8C44FF"/>
<path d="M136.3 273.3H129.3V266.3H128.2V273.3H121.2V274.3H128.2V281.3H129.3V274.3H136.3V273.3Z" fill="#8C44FF"/>
<path d="M136.3 323.3H129.3V316.3H128.2V323.3H121.2V324.3H128.2V331.3H129.3V324.3H136.3V323.3Z" fill="#8C44FF"/>
<path d="M136.3 373.3H129.3V366.3H128.2V373.3H121.2V374.3H128.2V381.3H129.3V374.3H136.3V373.3Z" fill="#8C44FF"/>
<path d="M136.3 423.3H129.3V416.3H128.2V423.3H121.2V424.3H128.2V431.3H129.3V424.3H136.3V423.3Z" fill="#8C44FF"/>
<path d="M136.3 473.3H129.3V466.3H128.2V473.3H121.2V474.3H128.2V481.3H129.3V474.3H136.3V473.3Z" fill="#8C44FF"/>
<path d="M136.3 523.3H129.3V516.3H128.2V523.3H121.2V524.3H128.2V531.3H129.3V524.3H136.3V523.3Z" fill="#8C44FF"/>
<path d="M136.3 573.3H129.3V566.3H128.2V573.3H121.2V574.3H128.2V581.3H129.3V574.3H136.3V573.3Z" fill="#8C44FF"/>
<path d="M136.3 623.3H129.3V616.3H128.2V623.3H121.2V624.3H128.2V631.3H129.3V624.3H136.3V623.3Z" fill="#8C44FF"/>
<path d="M136.3 673.3H129.3V666.3H128.2V673.3H121.2V674.3H128.2V681.3H129.3V674.3H136.3V673.3Z" fill="#8C44FF"/>
<path d="M136.3 723.3H129.3V716.3H128.2V723.3H121.2V724.3H128.2V731.3H129.3V724.3H136.3V723.3Z" fill="#8C44FF"/>
<path d="M136.3 773.3H129.3V766.3H128.2V773.3H121.2V774.3H128.2V781.3H129.3V774.3H136.3V773.3Z" fill="#8C44FF"/>
<path d="M86.3003 23.3H79.3003V16.3H78.2002V23.3H71.2002V24.3H78.2002V31.3H79.3003V24.3H86.3003V23.3Z" fill="#8C44FF"/>
<path d="M86.3003 73.3H79.3003V66.3H78.2002V73.3H71.2002V74.3H78.2002V81.3H79.3003V74.3H86.3003V73.3Z" fill="#8C44FF"/>
<path d="M86.3003 123.3H79.3003V116.3H78.2002V123.3H71.2002V124.3H78.2002V131.3H79.3003V124.3H86.3003V123.3Z" fill="#8C44FF"/>
<path d="M86.3003 173.3H79.3003V166.3H78.2002V173.3H71.2002V174.3H78.2002V181.3H79.3003V174.3H86.3003V173.3Z" fill="#8C44FF"/>
<path d="M86.3003 223.3H79.3003V216.3H78.2002V223.3H71.2002V224.3H78.2002V231.3H79.3003V224.3H86.3003V223.3Z" fill="#8C44FF"/>
<path d="M86.3003 273.3H79.3003V266.3H78.2002V273.3H71.2002V274.3H78.2002V281.3H79.3003V274.3H86.3003V273.3Z" fill="#8C44FF"/>
<path d="M86.3003 323.3H79.3003V316.3H78.2002V323.3H71.2002V324.3H78.2002V331.3H79.3003V324.3H86.3003V323.3Z" fill="#8C44FF"/>
<path d="M86.3003 373.3H79.3003V366.3H78.2002V373.3H71.2002V374.3H78.2002V381.3H79.3003V374.3H86.3003V373.3Z" fill="#8C44FF"/>
<path d="M86.3003 423.3H79.3003V416.3H78.2002V423.3H71.2002V424.3H78.2002V431.3H79.3003V424.3H86.3003V423.3Z" fill="#8C44FF"/>
<path d="M86.3003 473.3H79.3003V466.3H78.2002V473.3H71.2002V474.3H78.2002V481.3H79.3003V474.3H86.3003V473.3Z" fill="#8C44FF"/>
<path d="M86.3003 523.3H79.3003V516.3H78.2002V523.3H71.2002V524.3H78.2002V531.3H79.3003V524.3H86.3003V523.3Z" fill="#8C44FF"/>
<path d="M86.3003 573.3H79.3003V566.3H78.2002V573.3H71.2002V574.3H78.2002V581.3H79.3003V574.3H86.3003V573.3Z" fill="#8C44FF"/>
<path d="M86.3003 623.3H79.3003V616.3H78.2002V623.3H71.2002V624.3H78.2002V631.3H79.3003V624.3H86.3003V623.3Z" fill="#8C44FF"/>
<path d="M86.3003 673.3H79.3003V666.3H78.2002V673.3H71.2002V674.3H78.2002V681.3H79.3003V674.3H86.3003V673.3Z" fill="#8C44FF"/>
<path d="M86.3003 723.3H79.3003V716.3H78.2002V723.3H71.2002V724.3H78.2002V731.3H79.3003V724.3H86.3003V723.3Z" fill="#8C44FF"/>
<path d="M86.3003 773.3H79.3003V766.3H78.2002V773.3H71.2002V774.3H78.2002V781.3H79.3003V774.3H86.3003V773.3Z" fill="#8C44FF"/>
<path d="M36.3003 23.3H29.3003V16.3H28.2002V23.3H21.2002V24.3H28.2002V31.3H29.3003V24.3H36.3003V23.3Z" fill="#8C44FF"/>
<path d="M36.3003 73.3H29.3003V66.3H28.2002V73.3H21.2002V74.3H28.2002V81.3H29.3003V74.3H36.3003V73.3Z" fill="#8C44FF"/>
<path d="M36.3003 123.3H29.3003V116.3H28.2002V123.3H21.2002V124.3H28.2002V131.3H29.3003V124.3H36.3003V123.3Z" fill="#8C44FF"/>
<path d="M36.3003 173.3H29.3003V166.3H28.2002V173.3H21.2002V174.3H28.2002V181.3H29.3003V174.3H36.3003V173.3Z" fill="#8C44FF"/>
<path d="M36.3003 223.3H29.3003V216.3H28.2002V223.3H21.2002V224.3H28.2002V231.3H29.3003V224.3H36.3003V223.3Z" fill="#8C44FF"/>
<path d="M36.3003 273.3H29.3003V266.3H28.2002V273.3H21.2002V274.3H28.2002V281.3H29.3003V274.3H36.3003V273.3Z" fill="#8C44FF"/>
<path d="M36.3003 323.3H29.3003V316.3H28.2002V323.3H21.2002V324.3H28.2002V331.3H29.3003V324.3H36.3003V323.3Z" fill="#8C44FF"/>
<path d="M36.3003 373.3H29.3003V366.3H28.2002V373.3H21.2002V374.3H28.2002V381.3H29.3003V374.3H36.3003V373.3Z" fill="#8C44FF"/>
<path d="M36.3003 423.3H29.3003V416.3H28.2002V423.3H21.2002V424.3H28.2002V431.3H29.3003V424.3H36.3003V423.3Z" fill="#8C44FF"/>
<path d="M36.3003 473.3H29.3003V466.3H28.2002V473.3H21.2002V474.3H28.2002V481.3H29.3003V474.3H36.3003V473.3Z" fill="#8C44FF"/>
<path d="M36.3003 523.3H29.3003V516.3H28.2002V523.3H21.2002V524.3H28.2002V531.3H29.3003V524.3H36.3003V523.3Z" fill="#8C44FF"/>
<path d="M36.3003 573.3H29.3003V566.3H28.2002V573.3H21.2002V574.3H28.2002V581.3H29.3003V574.3H36.3003V573.3Z" fill="#8C44FF"/>
<path d="M36.3003 623.3H29.3003V616.3H28.2002V623.3H21.2002V624.3H28.2002V631.3H29.3003V624.3H36.3003V623.3Z" fill="#8C44FF"/>
<path d="M36.3003 673.3H29.3003V666.3H28.2002V673.3H21.2002V674.3H28.2002V681.3H29.3003V674.3H36.3003V673.3Z" fill="#8C44FF"/>
<path d="M36.3003 723.3H29.3003V716.3H28.2002V723.3H21.2002V724.3H28.2002V731.3H29.3003V724.3H36.3003V723.3Z" fill="#8C44FF"/>
<path d="M36.3003 773.3H29.3003V766.3H28.2002V773.3H21.2002V774.3H28.2002V781.3H29.3003V774.3H36.3003V773.3Z" fill="#8C44FF"/>
</g>
<defs>
<clipPath id="clip0_55_935">
<rect width="1440" height="800" fill="white"/>
</clipPath>
</defs>
</svg>
