<svg width="32" height="32" viewBox="0 0 32 32" fill="none" xmlns="http://www.w3.org/2000/svg">
<path d="M0.632812 16.4616V22.1528C0.632812 23.0157 1.339 23.7216 2.20194 23.7216H2.37302V28.431C2.37302 29.2939 3.07921 30.0001 3.94214 30.0001H6.59411C7.45705 30.0001 8.16324 29.2943 8.16324 28.431V23.7219H8.33432C9.19725 23.7219 9.90344 23.0161 9.90344 22.1531V16.4616C9.90344 14.6715 8.43882 13.2069 6.64875 13.2069H3.88785C2.09744 13.2069 0.632812 14.6715 0.632812 16.4616ZM2.15344 16.4616C2.15344 15.5054 2.93135 14.7275 3.88751 14.7275H6.64841C7.60457 14.7275 8.38247 15.5054 8.38247 16.4616V22.1528C8.38247 22.1757 8.3572 22.2009 8.33398 22.2009H8.1629H6.64226V23.7216V28.431C6.64226 28.4539 6.61699 28.4795 6.59411 28.4795H3.9418C3.91892 28.4795 3.89331 28.4542 3.89331 28.431V23.7219V22.2013H2.37268H2.20194C2.17906 22.2013 2.15379 22.176 2.15379 22.1531V16.4616H2.15344Z" fill="#C4C4C4"/>
<path d="M5.57547 11.294C6.95302 11.294 8.07992 10.1671 8.07992 8.78952V7.54583C8.07992 6.16828 6.95302 5.04138 5.57547 5.04138H4.96148C3.58393 5.04138 2.45703 6.16828 2.45703 7.54583V8.78952C2.45703 10.1671 3.58393 11.294 4.96148 11.294H5.57547ZM3.97766 8.78952V7.54583C3.97766 7.01243 4.42808 6.56201 4.96148 6.56201H5.57547C6.10887 6.56201 6.55929 7.01243 6.55929 7.54583V8.78952C6.55929 9.32292 6.10887 9.77334 5.57547 9.77334H4.96148C4.42808 9.77334 3.97766 9.32258 3.97766 8.78952Z" fill="#C4C4C4"/>
<path d="M11.3652 13.4203V19.1115C11.3652 19.9745 12.0714 20.6803 12.9344 20.6803H13.1054V25.3897C13.1054 26.2527 13.8116 26.9589 14.6746 26.9589H17.3265C18.1895 26.9589 18.8957 26.253 18.8957 25.3897V20.6807H19.0667C19.9297 20.6807 20.6359 19.9748 20.6359 19.1119V13.4203C20.6359 11.6303 19.1712 10.1656 17.3812 10.1656H14.6203C12.8299 10.1656 11.3652 11.6303 11.3652 13.4203ZM12.8859 13.4203C12.8859 12.4642 13.6638 11.6863 14.6199 11.6863H17.3808C18.337 11.6863 19.1149 12.4642 19.1149 13.4203V19.1115C19.1149 19.1344 19.0896 19.1597 19.0664 19.1597H18.8953H17.3747V20.6803V25.3897C17.3747 25.4126 17.3494 25.4382 17.3262 25.4382H14.6742C14.6513 25.4382 14.6257 25.413 14.6257 25.3897V20.6807V19.16H13.1051H12.934C12.9111 19.16 12.8855 19.1347 12.8855 19.1119L12.8859 13.4203Z" fill="#C4C4C4"/>
<path d="M16.3069 8.25259C17.6845 8.25259 18.8114 7.12569 18.8114 5.74814V4.50445C18.8114 3.1269 17.6845 2 16.3069 2H15.6929C14.3154 2 13.1885 3.1269 13.1885 4.50445V5.74814C13.1885 7.12569 14.3154 8.25259 15.6929 8.25259H16.3069ZM14.7091 5.7478V4.50411C14.7091 3.97071 15.1595 3.52029 15.6929 3.52029H16.3069C16.8403 3.52029 17.2907 3.97071 17.2907 4.50411V5.7478C17.2907 6.2812 16.8403 6.73161 16.3069 6.73161H15.6929C15.1595 6.73196 14.7091 6.2812 14.7091 5.7478Z" fill="#C4C4C4"/>
<path d="M22.0967 16.4616V22.1528C22.0967 23.0157 22.8029 23.7216 23.6658 23.7216H23.8369V28.431C23.8369 29.2939 24.5431 30.0001 25.406 30.0001H28.058C28.9209 30.0001 29.6271 29.2943 29.6271 28.431V23.7219H29.7982C30.6611 23.7219 31.3673 23.0161 31.3673 22.1531V16.4616C31.3673 14.6715 29.9027 13.2069 28.1126 13.2069H25.3517C23.5613 13.2069 22.0967 14.6715 22.0967 16.4616ZM23.6177 16.4616C23.6177 15.5054 24.3956 14.7275 25.3517 14.7275H28.1126C29.0688 14.7275 29.8467 15.5054 29.8467 16.4616V22.1528C29.8467 22.1757 29.8214 22.2009 29.7982 22.2009H29.6271H28.1065V23.7216V28.431C28.1065 28.4539 28.0812 28.4795 28.058 28.4795H25.406C25.3831 28.4795 25.3579 28.4542 25.3579 28.431V23.7219V22.2013H23.8372H23.6661C23.6433 22.2013 23.6177 22.176 23.6177 22.1531V16.4616Z" fill="#C4C4C4"/>
<path d="M27.0384 11.294C28.4159 11.294 29.5428 10.1671 29.5428 8.78952V7.54583C29.5428 6.16828 28.4159 5.04138 27.0384 5.04138H26.4244C25.0468 5.04138 23.9199 6.16828 23.9199 7.54583V8.78952C23.9199 10.1671 25.0468 11.294 26.4244 11.294H27.0384ZM25.4406 8.78952V7.54583C25.4406 7.01243 25.891 6.56201 26.4244 6.56201H27.0384C27.5718 6.56201 28.0222 7.01243 28.0222 7.54583V8.78952C28.0222 9.32292 27.5718 9.77334 27.0384 9.77334H26.4244C25.891 9.77334 25.4406 9.32258 25.4406 8.78952Z" fill="#C4C4C4"/>
</svg>
