<svg width="32" height="32" viewBox="0 0 32 32" fill="none" xmlns="http://www.w3.org/2000/svg">
<g clip-path="url(#clip0_51_74)">
<path d="M16 30C15.7214 30 15.4591 29.8671 15.2942 29.6424L7.7392 19.3398C6.27417 17.342 5.5 14.9772 5.5 12.5C5.5 6.71039 10.2104 2 16 2C21.7896 2 26.5 6.71039 26.5 12.5C26.5 14.9772 25.7258 17.342 24.2612 19.3398L16.7058 29.6424C16.5409 29.8671 16.2786 30 16 30ZM16 3.75C11.1751 3.75 7.25 7.67511 7.25 12.5C7.25 14.6021 7.9071 16.6097 9.15039 18.305L16 27.6454L22.85 18.305C24.0929 16.6097 24.75 14.6021 24.75 12.5C24.75 7.67511 20.8249 3.75 16 3.75ZM16 16.875C13.5878 16.875 11.625 14.9122 11.625 12.5C11.625 10.0878 13.5878 8.125 16 8.125C18.4122 8.125 20.375 10.0878 20.375 12.5C20.375 14.9122 18.4122 16.875 16 16.875ZM16 9.875C14.5525 9.875 13.375 11.0525 13.375 12.5C13.375 13.9475 14.5525 15.125 16 15.125C17.4475 15.125 18.625 13.9475 18.625 12.5C18.625 11.0525 17.4475 9.875 16 9.875Z" fill="#C4C4C4"/>
</g>
<defs>
<clipPath id="clip0_51_74">
<rect width="32" height="32" fill="white"/>
</clipPath>
</defs>
</svg>
