<svg width="32" height="32" viewBox="0 0 32 32" fill="none" xmlns="http://www.w3.org/2000/svg">
<g clip-path="url(#clip0_39_49)">
<path d="M16.0004 2.46155C13.3227 2.46155 10.7052 3.25556 8.47882 4.74319C6.25243 6.23081 4.51717 8.34523 3.49247 10.8191C2.46778 13.2929 2.19967 16.015 2.72206 18.6412C3.24444 21.2674 4.53386 23.6798 6.42724 25.5731C8.32063 27.4665 10.733 28.7559 13.3592 29.2783C15.9854 29.8007 18.7075 29.5326 21.1813 28.5079C23.6552 27.4832 25.7696 25.748 27.2572 23.5216C28.7448 21.2952 29.5388 18.6777 29.5388 16C29.5388 12.4094 28.1125 8.96583 25.5735 6.42687C23.0346 3.88792 19.591 2.46155 16.0004 2.46155ZM16.0004 27.0769C13.8096 27.0769 11.668 26.4273 9.84637 25.2101C8.02478 23.993 6.60503 22.263 5.76664 20.239C4.92825 18.2149 4.70889 15.9877 5.1363 13.839C5.5637 11.6903 6.61868 9.71658 8.16781 8.16744C9.71695 6.61831 11.6907 5.56333 13.8394 5.13593C15.9881 4.70852 18.2153 4.92788 20.2393 5.76627C22.2634 6.60465 23.9934 8.02441 25.2105 9.846C26.4277 11.6676 27.0773 13.8092 27.0773 16C27.0773 18.9378 25.9103 21.7552 23.8329 23.8326C21.7556 25.9099 18.9382 27.0769 16.0004 27.0769Z" fill="white"/>
<path d="M20.9236 14.7693H17.2313V11.077C17.2313 10.7505 17.1016 10.4375 16.8708 10.2067C16.64 9.97586 16.3269 9.84619 16.0005 9.84619C15.6741 9.84619 15.3611 9.97586 15.1302 10.2067C14.8994 10.4375 14.7698 10.7505 14.7698 11.077V14.7693H11.0774C10.751 14.7693 10.438 14.8989 10.2072 15.1298C9.97635 15.3606 9.84668 15.6736 9.84668 16C9.84668 16.3265 9.97635 16.6395 10.2072 16.8703C10.438 17.1011 10.751 17.2308 11.0774 17.2308H14.7698V20.9231C14.7698 21.2495 14.8994 21.5626 15.1302 21.7934C15.3611 22.0242 15.6741 22.1539 16.0005 22.1539C16.3269 22.1539 16.64 22.0242 16.8708 21.7934C17.1016 21.5626 17.2313 21.2495 17.2313 20.9231V17.2308H20.9236C21.25 17.2308 21.5631 17.1011 21.7939 16.8703C22.0247 16.6395 22.1544 16.3265 22.1544 16C22.1544 15.6736 22.0247 15.3606 21.7939 15.1298C21.5631 14.8989 21.25 14.7693 20.9236 14.7693Z" fill="white"/>
</g>
<defs>
<clipPath id="clip0_39_49">
<rect width="32" height="32" fill="white"/>
</clipPath>
</defs>
</svg>
