<svg width="32" height="32" viewBox="0 0 32 32" fill="none" xmlns="http://www.w3.org/2000/svg">
<path d="M29.4855 10.6154L27.7447 8.87462C27.5087 8.63858 27.0956 8.57956 26.8006 8.75659C25.7679 9.4057 24.4697 9.25817 23.6141 8.40253C22.7584 7.54689 22.6109 6.21918 23.26 5.21602C23.437 4.92098 23.4075 4.53741 23.142 4.27187L21.4012 2.5311C21.0472 2.17704 20.6046 2 20.103 2C19.6014 2 19.1589 2.17704 18.8048 2.5311L2.5477 18.7882C2.19364 19.1423 2.0166 19.5848 2.0166 20.0864C2.0166 20.588 2.19364 21.0306 2.5477 21.3846L4.28847 23.1254C4.52451 23.3614 4.90808 23.4204 5.20313 23.2434C6.20629 22.6238 7.50448 22.8009 8.36012 23.627C9.18625 24.4531 9.36329 25.7513 8.7437 26.784C8.56667 27.079 8.59616 27.4626 8.8617 27.6986L10.632 29.4689C10.986 29.823 11.4581 30 11.9302 30C12.4023 30 12.8743 29.823 13.2284 29.4689L29.4855 13.2118C29.8396 12.8577 30.0166 12.4152 30.0166 11.9136C30.0166 11.412 29.8396 10.9694 29.4855 10.6154ZM12.1367 28.3772C12.0187 28.4953 11.8122 28.4953 11.6942 28.3772L10.3074 26.9905C10.927 25.4858 10.6025 23.7155 9.4223 22.5353C8.24211 21.3551 6.47182 21.0011 4.96707 21.6502L3.60986 20.2929C3.52135 20.2044 3.52135 20.1159 3.52135 20.0569C3.52135 19.9979 3.52135 19.9094 3.60986 19.8209L14.3791 9.05164L22.9355 17.608L12.1367 28.3772ZM28.3938 12.1201L23.9681 16.5458L15.4118 7.98948L19.8375 3.56377C19.9555 3.44575 20.162 3.44575 20.28 3.56377L21.6372 4.92098C20.9586 6.45522 21.2832 8.2255 22.4929 9.4352C23.7026 10.6449 25.5024 10.9695 27.0071 10.2908L28.3643 11.6481C28.4529 11.7366 28.4529 11.8251 28.4529 11.8841C28.5119 11.9431 28.4824 12.0611 28.3938 12.1201Z" fill="#C4C4C4"/>
</svg>
