<svg width="32" height="32" viewBox="0 0 32 32" fill="none" xmlns="http://www.w3.org/2000/svg">
<g clip-path="url(#clip0_50_59)">
<path fill-rule="evenodd" clip-rule="evenodd" d="M16 3C8.82487 3 3 8.82487 3 16C3 23.1751 8.82487 29 16 29C23.1751 29 29 23.1751 29 16C29 8.82487 23.1751 3 16 3ZM16 4.73333C22.2183 4.73333 27.2667 9.78167 27.2667 16C27.2667 22.2183 22.2183 27.2667 16 27.2667C9.78167 27.2667 4.73333 22.2183 4.73333 16C4.73333 9.78167 9.78167 4.73333 16 4.73333Z" fill="#C4C4C4"/>
<path fill-rule="evenodd" clip-rule="evenodd" d="M14 8.82355V16.2355C14 16.4538 14.0919 16.6638 14.2564 16.8178L19.5067 21.7591C19.848 22.0803 20.4028 22.0803 20.744 21.7591C21.0853 21.4379 21.0853 20.9158 20.744 20.5946L15.7501 15.8946V8.82355C15.7501 8.36895 15.3581 8 14.8751 8C14.392 8 14 8.36895 14 8.82355Z" fill="#C4C4C4"/>
</g>
<defs>
<clipPath id="clip0_50_59">
<rect width="32" height="32" fill="white"/>
</clipPath>
</defs>
</svg>
