<svg width="32" height="32" viewBox="0 0 32 32" fill="none" xmlns="http://www.w3.org/2000/svg">
<g clip-path="url(#clip0_39_31)">
<path d="M16 3C17.707 3 19.2543 3.69292 20.3765 4.8144C21.4973 5.93658 22.1898 7.48316 22.1898 9.18981C22.1898 10.8975 21.4969 12.4448 20.3772 13.5652C19.2574 14.6867 17.7094 15.3796 16 15.3796C14.2906 15.3796 12.7426 14.6867 11.6229 13.5666L11.5997 13.5417C10.4938 12.4233 9.81021 10.8857 9.81021 9.18981C9.81021 7.48282 10.5031 5.93554 11.6246 4.81336C12.7468 3.69257 14.2934 3 16 3ZM20.6859 16.7388C22.6243 16.965 24.3507 17.9115 25.5869 19.3005C26.8095 20.6738 27.5547 22.4813 27.5547 24.4544C27.5547 25.8153 26.9987 27.0521 26.1027 27.9477C25.2068 28.8437 23.9696 29.4001 22.6097 29.4001H9.3903C8.03046 29.4001 6.79326 28.8437 5.89732 27.9477C5.00138 27.0521 4.44531 25.8153 4.44531 24.4547C4.44531 22.4813 5.19054 20.6738 6.41319 19.3005C7.64935 17.9115 9.37575 16.965 11.3142 16.7384C11.4143 16.727 11.5106 16.7516 11.59 16.8018C12.2451 17.1822 12.9564 17.4812 13.7054 17.6829C14.4351 17.8793 15.2049 17.9846 16 17.9846C16.7951 17.9846 17.565 17.8793 18.2946 17.6829C19.0495 17.4799 19.7653 17.1781 20.4246 16.7935C20.5067 16.7457 20.5982 16.7291 20.6859 16.7388Z" fill="white"/>
</g>
<defs>
<clipPath id="clip0_39_31">
<rect width="32" height="32" fill="white"/>
</clipPath>
</defs>
</svg>
